<?xml version="1.0" encoding="utf-8"?>
<!-- Generator: Adobe Illustrator 27.7.0, SVG Export Plug-In . SVG Version: 6.00 Build 0)  -->
<svg version="1.2" baseProfile="tiny" id="Layer_1" xmlns="http://www.w3.org/2000/svg" xmlns:xlink="http://www.w3.org/1999/xlink"
	 x="0px" y="0px" viewBox="0 0 1920 1040" overflow="visible" xml:space="preserve">
<g id="Layer_34_">
	<g>
		<g>
			<image width="1420" height="1050" xlink:href="6E81F1C.png"  transform="matrix(1 0 0 1 -21 -7)">
			</image>
		</g>
		<path id="Layer_70_" fill="#488A0A" d="M1301.4-5.2h-96.6v1049h96.6V-5.2z"/>
		<path id="Layer_66_" fill="#488A0A" d="M1501-5.2h-103v1049h103V-5.2z"/>
		<path id="Layer_64_" fill="#488A0A" d="M1708.9-5.2h-105v1049h105V-5.2z"/>
		<path id="Layer_62_" fill="#377508" d="M1398-5.2h-96.6v1049h96.6V-5.2z"/>
		<path id="Layer_58_" fill="#377508" d="M1603.8-5.2H1501v1049h102.9L1603.8-5.2L1603.8-5.2z"/>
		<path id="Layer_56_" fill="#377508" d="M1817.6-5.2h-108.8v1049h108.8V-5.2L1817.6-5.2z"/>
		<path id="Layer_55_" fill="#488A0A" d="M1817.6-5.2h108.7v1049h-108.7V-5.2z"/>
		<image width="712" height="1052" id="Layer_54_" xlink:href="6E81F1D.png"  transform="matrix(1 0 0 1 1204 -6)">
		</image>
	</g>
</g>
<image width="1933" height="1046" xlink:href="6E81F1B.png"  transform="matrix(1 0 0 1 -1 0)">
</image>
<g id="Layer_33_">
	<path id="Layer" fill="#759F4F" stroke="#CDCDCD" stroke-width="0.6" d="M1581.8,88.2H337.3c-18.1,0-32.8,14.6-32.8,32.8v807.5
		c0,18.1,14.7,32.8,32.8,32.8h1244.5c18.1,0,32.8-14.7,32.8-32.8V121C1614.6,102.8,1599.9,88.2,1581.8,88.2L1581.8,88.2z"/>
	<path id="Layer_1_" fill="#488A0A" d="M442.1,126.8h-96.9v795.8h96.9V126.8z"/>
	<path id="Layer_2_" fill="#377508" d="M1476.9,126.8h96.9v795.8h-96.9V126.8z"/>
	<path id="Layer_3_" fill="#488A0A" d="M642.1,126.8H538.9v795.8h103.2L642.1,126.8L642.1,126.8z"/>
	<path id="Layer_4_" fill="#377508" d="M1276.9,126.8h103.2v795.8h-103.2V126.8z"/>
	<path id="Layer_5_" fill="#488A0A" d="M850.5,126.8H745.2v795.8h105.3V126.8z"/>
	<path id="Layer_6_" fill="#377508" d="M1068.4,126.8h105.3v795.8h-105.3V126.8z"/>
	<path id="Layer_7_" fill="#377508" d="M538.9,126.8h-96.8v795.8h96.8V126.8z"/>
	<path id="Layer_8_" fill="#488A0A" d="M1380.1,126.8h96.8v795.8h-96.8V126.8z"/>
	<path id="Layer_9_" fill="#377508" d="M745.2,126.8H642.1v795.8h103.1L745.2,126.8L745.2,126.8z"/>
	<path id="Layer_10_" fill="#488A0A" d="M1173.7,126.8h103.2v795.8h-103.2V126.8z"/>
	<path id="Layer_11_" fill="#377508" d="M959.5,126.8h-109v795.9h109V126.8z"/>
	<path id="Layer_12_" fill="#488A0A" d="M959.5,126.8h109v795.9h-109V126.8z"/>
	<path id="Layer_13_" fill-rule="evenodd" fill="#FFFFFF" d="M341.2,123.6h1236.4V926H341.2V123.6z M345.4,127.8v794.1h611.9V127.8
		H345.4z M961.5,127.8v794.1h611.9V127.8H961.5z"/>
	<path id="Layer_14_" fill-rule="evenodd" fill="#FFFFFF" d="M849.9,524.8c0-60.5,49-109.5,109.5-109.5s109.5,49,109.5,109.5
		s-49,109.5-109.5,109.5S849.9,585.3,849.9,524.8z M959.4,419.5c-58.2,0-105.3,47.2-105.3,105.3c0,58.2,47.1,105.3,105.3,105.3
		c58.1,0,105.3-47.1,105.3-105.3C1064.7,466.7,1017.5,419.5,959.4,419.5L959.4,419.5z"/>
	<path id="Layer_15_" fill="#FFFFFF" d="M959.4,527.2c1.3,0,2.3-1.1,2.3-2.4c0-1.3-1-2.3-2.3-2.3s-2.4,1-2.4,2.3
		S958.1,527.2,959.4,527.2z"/>
	<path id="Layer_16_" fill-rule="evenodd" fill="#FFFFFF" d="M954.9,524.8c0-2.4,2-4.4,4.5-4.4c2.4,0,4.4,2,4.4,4.4
		c0,2.5-2,4.5-4.4,4.5C956.9,529.3,954.9,527.3,954.9,524.8z M959.4,524.6c-0.1,0-0.3,0.1-0.3,0.2c0,0.1,0.2,0.3,0.3,0.3
		s0.2-0.2,0.2-0.3S959.5,524.6,959.4,524.6z"/>
	<path id="Layer_17_" fill="#FFFFFF" d="M472.4,527.2c1.3,0,2.3-1.1,2.3-2.4c0-1.3-1-2.3-2.3-2.3s-2.4,1-2.4,2.3
		S471.1,527.2,472.4,527.2z"/>
	<path id="Layer_18_" fill-rule="evenodd" fill="#FFFFFF" d="M467.9,524.8c0-2.4,2-4.4,4.5-4.4c2.4,0,4.4,2,4.4,4.4
		c0,2.5-2,4.5-4.4,4.5C469.9,529.3,467.9,527.3,467.9,524.8z M472.4,524.6c-0.2,0-0.3,0.1-0.3,0.2c0,0.1,0.1,0.3,0.3,0.3
		c0.1,0,0.2-0.2,0.2-0.3S472.5,524.6,472.4,524.6z"/>
	<path id="Layer_19_" fill="#FFFFFF" d="M1446.4,527.2c1.3,0,2.4-1.1,2.4-2.4c0-1.3-1.1-2.3-2.4-2.3s-2.3,1-2.3,2.3
		S1445.1,527.2,1446.4,527.2z"/>
	<path id="Layer_20_" fill-rule="evenodd" fill="#FFFFFF" d="M1442,524.8c0-2.4,2-4.4,4.4-4.4c2.5,0,4.5,2,4.5,4.4
		c0,2.5-2,4.5-4.5,4.5C1444,529.3,1442,527.3,1442,524.8z M1446.4,524.6c-0.1,0-0.2,0.1-0.2,0.2c0,0.1,0.1,0.3,0.2,0.3
		c0.2,0,0.3-0.2,0.3-0.3S1446.6,524.6,1446.4,524.6z"/>
	<path id="Layer_21_" fill-rule="evenodd" fill="#FFFFFF" d="M320.1,480.9h25.3v89h-25.3V480.9z M324.3,485.1v80.5h16.8v-80.5
		L324.3,485.1L324.3,485.1z"/>
	<path id="Layer_22_" fill-rule="evenodd" fill="#FFFFFF" d="M341.2,416.4h68.7v218.1h-68.7V416.4z M345.4,420.6v209.6h60.3V420.6
		H345.4z"/>
	<path id="Layer_23_" fill-rule="evenodd" fill="#FFFFFF" d="M1508.9,416.4h68.7v218.1h-68.7V416.4z M1513.1,420.6v209.6h60.3V420.6
		H1513.1z"/>
	<path id="Layer_24_" fill-rule="evenodd" fill="#FFFFFF" d="M341.2,287.2H539v476.4H341.2V287.2z M345.4,291.4v467.9h189.4V291.4
		H345.4z"/>
	<path id="Layer_25_" fill-rule="evenodd" fill="#FFFFFF" d="M1379.8,287.2h197.8v476.4h-197.8V287.2z M1384,291.4v467.9h189.4
		V291.4H1384z"/>
	<path id="Layer_26_" fill-rule="evenodd" fill="#FFFFFF" d="M534.8,434.8l3.4,2.5c13.5,10.2,24.5,23.4,32.1,38.6
		s11.5,31.9,11.5,48.9s-3.9,33.7-11.5,48.9s-18.6,28.4-32.1,38.6l-3.4,2.6V434.8z M539,443.3v163c11.5-9.4,20.9-21.1,27.5-34.4
		c7.3-14.6,11.1-30.7,11.1-47.1c0-16.3-3.8-32.4-11.1-47C559.9,464.5,550.5,452.7,539,443.3L539,443.3z"/>
	<path id="Layer_27_" fill-rule="evenodd" fill="#FFFFFF" d="M1384,434.8v180.1l-3.4-2.6c-13.6-10.2-24.6-23.4-32.1-38.6
		c-7.6-15.2-11.6-31.9-11.6-48.9s4-33.7,11.6-48.9c7.5-15.2,18.5-28.4,32.1-38.6L1384,434.8z M1379.8,443.3
		c-11.5,9.5-20.9,21.2-27.5,34.5c-7.3,14.6-11.1,30.7-11.1,47.1c0,16.3,3.8,32.4,11.1,47c6.6,13.3,16,25.1,27.5,34.5V443.3z"/>
	<path id="Layer_28_" fill-rule="evenodd" fill="#FFFFFF" d="M341.2,123.6h15.9v2.1c0,3.7-1.5,7.2-4.1,9.8s-6.1,4.1-9.7,4.1h-2.1
		L341.2,123.6z M345.4,127.8v7.3c1.7-0.4,3.4-1.3,4.7-2.6c1.3-1.3,2.2-3,2.6-4.7H345.4z"/>
	<path id="Layer_29_" fill-rule="evenodd" fill="#FFFFFF" d="M341.2,910.1h2.1c3.6,0,7.1,1.4,9.7,4s4.1,6.1,4.1,9.8v2.1h-15.9
		L341.2,910.1z M345.4,914.6v7.3h7.3c-0.4-1.8-1.3-3.4-2.6-4.7C348.8,915.9,347.1,915,345.4,914.6L345.4,914.6z"/>
	<path id="Layer_30_" fill-rule="evenodd" fill="#FFFFFF" d="M1565.7,914.1c2.6-2.6,6.2-4,9.8-4h2.1V926h-15.9v-2.1
		C1561.7,920.2,1563.2,916.7,1565.7,914.1L1565.7,914.1z M1573.4,914.5c-1.7,0.4-3.4,1.3-4.7,2.6c-1.3,1.3-2.2,3-2.6,4.7h7.3
		L1573.4,914.5z"/>
	<path id="Layer_31_" fill-rule="evenodd" fill="#FFFFFF" d="M1561.7,123.6h15.9v16h-2.1c-3.6,0-7.2-1.5-9.8-4.1
		c-2.5-2.6-4-6.1-4-9.8V123.6z M1566.1,127.8c0.4,1.8,1.3,3.4,2.6,4.7c1.3,1.3,3,2.2,4.7,2.6v-7.3H1566.1z"/>
	<path id="Layer_32_" fill-rule="evenodd" fill="#FFFFFF" d="M1573.5,481.2h25.2v89h-25.2V481.2z M1577.7,485.4v80.5h16.8v-80.5
		L1577.7,485.4L1577.7,485.4z"/>
</g>
<image width="401" height="126" id="Layer_x0020_1" xlink:href="6E81F24.png"  transform="matrix(1 0 0 1 762 463)">
</image>
</svg>
