<?xml version="1.0" encoding="utf-8"?>
<!-- Generator: Adobe Illustrator 27.7.0, SVG Export Plug-In . SVG Version: 6.00 Build 0)  -->
<svg version="1.2" baseProfile="tiny" id="Layer_1" xmlns="http://www.w3.org/2000/svg" xmlns:xlink="http://www.w3.org/1999/xlink"
	 x="0px" y="0px" viewBox="0 0 1920 1040" overflow="visible" xml:space="preserve">
<g id="Layer_188_">
	<g>
		<g>
			<image width="1420" height="1050" xlink:href="39228E72.png"  transform="matrix(1 0 0 1 -18 -6)">
			</image>
		</g>
		<path id="Layer_196_" fill="#488A0A" d="M1304-4.2h-96.6v1049h96.6V-4.2z"/>
		<path id="Layer_195_" fill="#488A0A" d="M1503.5-4.2h-103v1049h103V-4.2z"/>
		<path id="Layer_194_" fill="#488A0A" d="M1711.4-4.2h-105v1049h105V-4.2z"/>
		<path id="Layer_193_" fill="#377508" d="M1400.6-4.2H1304v1049h96.6V-4.2z"/>
		<path id="Layer_192_" fill="#377508" d="M1606.4-4.2h-102.9v1049h102.9V-4.2z"/>
		<path id="Layer_191_" fill="#377508" d="M1820.1-4.2h-108.8v1049h108.8V-4.2L1820.1-4.2z"/>
		<path id="Layer_190_" fill="#488A0A" d="M1820.1-4.2h108.7v1049h-108.7V-4.2z"/>
		<image width="711" height="1052" id="Layer_189_" xlink:href="39228E76.png"  transform="matrix(1 0 0 1 1207 -5)">
		</image>
	</g>
</g>
<image width="1933" height="1046" xlink:href="39228E71.png"  transform="matrix(1 0 0 1 -7 0)">
</image>
<g id="Layer_1_">
	<image width="305" height="112" id="Layer" xlink:href="39228E73.png"  transform="matrix(1 0 0 1 816 106)">
	</image>
</g>
<g id="Layer_47_">
	<path id="Layer_2_" fill="#498C0A" d="M415.3,224.3c2.9-9.6,11.8-16,21.7-16l1054.6-3.1c10.1,0,19,6.6,22,16.1l195.9,630.5
		c4.6,14.7-6.5,29.7-21.8,29.7H239.8c-15.5,0-26.5-15-21.8-29.8L415.3,224.3z"/>
	<path id="Layer_3_" fill="#498C0A" d="M1482.7,236c-0.4-0.3-0.9-0.4-1.4-0.7c-0.4-0.3-0.9-0.6-1.2-0.9c-0.3-0.3-0.7-0.5-1-0.8
		s-0.5-0.6-0.7-0.9h9.5l1.7,5.3c-0.5,0-1.1-0.2-1.8-0.3c-0.6-0.1-1.2-0.3-1.8-0.5c-0.6-0.1-1.1-0.2-1.7-0.5
		C1483.7,236.7,1483.1,236.3,1482.7,236L1482.7,236z"/>
	<path id="Layer_4_" fill="#498C0A" d="M447.9,232.7h9.6c-0.2,0.3-0.5,0.6-0.7,0.9c-0.3,0.3-0.6,0.6-1.1,0.9
		c-0.2,0.3-0.7,0.6-1.1,0.8c-0.5,0.3-0.9,0.5-1.4,0.8s-1,0.4-1.6,0.6c-0.6,0.1-1,0.4-1.7,0.5c-0.6,0.2-1.1,0.4-1.8,0.5
		c-0.6,0.1-1.2,0.1-1.9,0.3L447.9,232.7z"/>
	<path id="Layer_5_" fill="#498C0A" d="M425.6,306l19.8-64.9c0.8-0.1,2-0.1,2.8-0.3c0.9-0.1,2-0.3,2.9-0.6c0.9-0.2,1.8-0.4,2.7-0.8
		c0.9-0.3,1.7-0.6,2.6-1c0.7-0.5,1.5-0.8,2.2-1.2c0.8-0.4,1.4-0.9,2-1.4s1-0.9,1.6-1.6c0.4-0.4,0.7-1,1-1.5h126.6L573.7,306H425.6z"
		/>
	<path id="Layer_6_" fill="#498C0A" d="M1479.6,238.3c0.7,0.4,1.7,0.7,2.5,1c0.9,0.3,1.8,0.7,2.7,0.9c0.9,0.3,1.9,0.4,2.9,0.6
		c0.9,0.1,2,0.3,2.9,0.3l19.8,64.8h-149.5l-16.1-73.4H1473c0.3,0.5,0.6,1.1,1,1.6c0.4,0.4,0.9,1,1.5,1.5s1.2,0.9,2,1.4
		C1477.9,237.6,1478.6,237.9,1479.6,238.3L1479.6,238.3z"/>
	<path id="Layer_7_" fill="#377608" d="M425.6,306h147.8l-17.6,80H401.2L425.6,306z"/>
	<path id="Layer_8_" fill="#498C0A" d="M561.7,386h399.7c0,0.6,0.1,1,0.4,1.5c0.3,0.5,0.7,0.9,1.4,1.2c0.6,0.3,1.2,0.6,2,0.9
		c0.7,0.1,1.7,0.2,2.4,0.2c0.9,0,1.7-0.1,2.4-0.2c0.7-0.2,1.6-0.5,2-0.8c0.6-0.3,1-0.7,1.4-1.1c0.3-0.5,0.4-0.9,0.4-1.6h398.1
		l19.5,89.4h-288.7H833H542.2L561.7,386z"/>
	<path id="Layer_9_" fill="#498C0A" d="M401.2,386h154.6l-20.7,93.4h302.5l-464.8,0.1L401.2,386z"/>
	<path id="Layer_10_" fill="#498C0A" d="M305.7,700.1l35.6-117.4h1252.9l35.6,117.4H986.6c-1.6-0.2-3-0.2-4.7-0.3
		c-1.6-0.2-3.2-0.2-4.7-0.2c-1.6,0-3.2-0.1-4.7-0.1c-1.6,0-3.2,0-4.7,0c-1.6,0-3.2,0-4.7,0c-1.6,0-3.2,0-4.7,0.1
		c-1.6,0-3.1,0.2-4.7,0.2c-1.5,0.1-3,0.1-4.7,0.3H305.7z"/>
	<path id="Layer_11_" fill="#377608" d="M265.2,833.6l40.6-133.5h643.4c-22.8,1.7-44.3,6.1-64.3,13.2c-19.9,7.1-38.2,16.6-53.7,28.2
		c-15.9,11.9-29,25.6-38.8,41c-10,15.5-16.3,32.7-18.4,51.1H265.2z"/>
	<path id="Layer_12_" fill="#498C0A" d="M738.1,232.7H1196l9.4,69.9H728.7L738.1,232.7z"/>
	<path id="Layer_13_" fill="#498C0A" d="M595.2,232.7h137.3L722.4,306h489.2l-10-73.2H1339l15.8,73.2H579.2L595.2,232.7z"/>
	<path id="Layer_14_" fill="#377608" d="M1378.2,386l-17.7-80h149.6l24.3,80H1378.2z"/>
	<path id="Layer_15_" fill="#377608" d="M967.9,382.1c-0.9,0-1.7,0.2-2.4,0.3c-0.8,0.2-1.6,0.5-2,0.8c-0.6,0.3-1,0.7-1.4,1.1
		c-0.3,0.5-0.5,0.9-0.5,1.6H561.7l17.5-80H1355l17.4,80H974.2c0-0.5-0.2-1-0.5-1.6c-0.2-0.4-0.7-0.8-1.4-1.1
		c-0.5-0.3-1.1-0.6-1.9-0.8C969.5,382.3,968.8,382.1,967.9,382.1z"/>
	<path id="Layer_16_" fill="#498C0A" d="M1398.8,479.4l-20.6-93.4h156.3l28.3,93.5h-464.9L1398.8,479.4z"/>
	<path id="Layer_17_" fill="#377608" d="M896.3,505.9c-5-1.7-9.8-3.4-14.5-5.3c-4.7-2-9.1-4.1-13.3-6.1c-4.2-2.3-8.2-4.6-12.1-7.1
		c-3.7-2.5-7.4-5.2-10.7-7.9h244.1c-3.3,2.7-7,5.3-10.7,7.9c-3.7,2.5-7.8,4.8-12.1,7.1c-4.3,2.3-8.7,4.4-13.3,6.1
		c-4.7,2-9.5,3.8-14.5,5.3c-5.4,1.8-11.1,3.3-16.9,4.7c-5.8,1.4-11.7,2.6-17.7,3.4c-6,0.9-12.1,1.7-18.3,2.2
		c-6.1,0.4-12.4,0.7-18.5,0.7c-6.2,0-12.4-0.3-18.6-0.7c-6.1-0.5-12.2-1.2-18.2-2.2c-6-0.8-12-2.1-17.7-3.4
		C907.5,509.3,901.9,507.7,896.3,505.9L896.3,505.9z"/>
	<path id="Layer_18_" fill="#377608" d="M1042.3,509.6c5.6-1.9,11-3.7,16.1-6c5.2-2.3,10.2-4.6,14.9-7.1c4.6-2.6,9.1-5.3,13.2-8.2
		c4.1-2.8,8-5.8,11.7-8.8H1563l31.4,103.3H341.3l31.4-103.3h464.9c3.6,3.1,7.4,6.1,11.7,8.8c4.2,2.9,8.5,5.6,13.2,8.2
		c4.7,2.5,9.7,5,14.9,7.1c5.1,2.3,10.5,4.2,16.1,6c5.7,1.8,11.5,3.5,17.6,5c6.1,1.4,12.3,2.5,18.4,3.6c6.2,0.8,12.7,1.6,19,2.1
		c6.6,0.4,12.9,0.7,19.4,0.7s13-0.3,19.4-0.7c6.3-0.5,12.8-1.2,18.9-2.1c6.2-0.9,12.4-2.2,18.4-3.6
		C1030.6,513.2,1036.5,511.5,1042.3,509.6L1042.3,509.6z"/>
	<path id="Layer_19_" fill="#377608" d="M960.9,833.6H781.4c2-18.8,8.9-36.3,19.6-52.2c10.4-15.5,24.6-29.3,41.4-40.7
		c16.8-11.3,36.1-20.4,57.4-26.7c21.1-6.1,44-9.7,68-9.7s46.9,3.5,68,9.7s40.6,15.3,57.3,26.7c17,11.4,31.1,25.2,41.5,40.7
		c10.6,15.7,17.6,33.4,19.6,52.2H974.8c-0.3-0.4-0.8-0.8-1.2-1.1c-0.4-0.5-1-0.7-1.7-1s-1.2-0.5-2-0.6c-0.7-0.2-1.4-0.3-2.1-0.3
		c-0.7,0-1.6,0.1-2.1,0.3c-0.8,0.1-1.4,0.3-2,0.6s-1.2,0.5-1.7,1C961.6,832.7,961.2,833.1,960.9,833.6z"/>
	<path id="Layer_20_" fill-rule="evenodd" fill="#77A150" d="M1483.9,193.2c5.7,0,11.4,0.6,16.8,1.9c5.4,1.1,10.4,3,14.9,5.1
		c4.6,2.1,8.5,4.8,11.5,7.7s5.2,6,6.5,9.5l213.6,640c2.1,6.6,2.5,12.6,1.5,18.3c-1,5.5-3.7,10.7-7.7,15.1s-9.2,7.8-15.4,10.2
		c-6.3,2.5-13.7,3.8-21.8,3.8H232.4c-8.1,0-15.6-1.4-21.8-3.8c-6.3-2.4-11.5-5.8-15.4-10.2c-4-4.4-6.6-9.4-7.7-15.1
		c-1.1-5.6-0.6-11.8,1.5-18.3l213.6-640c1-3.3,3.3-6.5,6.5-9.5c3-2.9,7-5.4,11.4-7.7c4.6-2.1,9.6-4,15-5.1c5.3-1.2,11-1.9,16.8-1.9
		L1483.9,193.2z M1495.9,241.3l-3.5-11.3H443.7l-3.4,11.3l-183.7,598h1423.3L1495.9,241.3z"/>
	<path id="Layer_21_" fill="#377608" d="M1161.6,833.6c-1.9-18.4-8.4-35.6-18.3-51.1c-9.9-15.4-23-29.1-38.8-41
		c-15.6-11.5-33.8-21.1-53.8-28.2c-19.8-7.1-41.5-11.5-64.3-13.2h643.4l40.7,133.5H1161.6z"/>
	<path id="Layer_22_" fill="#FFFFFF" d="M573.4,306l16.2-73.2l0.5-2.8h753.7l0.7,2.8l15.9,73.2l17.7,80l20.6,93.4h-300.9l4.6-4
		h289.1l-19.5-89.5l-17.4-80l-15.8-73.2h-137.3h-469H595.2l-16,73.2l-17.5,80l-19.5,89.5H833l3.6,3.1l-301.5,0.8l20.7-93.4
		L573.4,306z"/>
	<path id="Layer_23_" fill="#FFFFFF" d="M774,833.6c0,0.3,0,0.5-0.1,0.8c0,0.3,0,0.4,0,0.7s0,0.4,0,0.7s0,0.5,0,0.7
		c0,0.3,0,0.5,0,0.8s0,0.4,0,0.7s0,0.4,0,0.7s0,0.7,0,0.9H263.7h-7.3l183.7-598.5V241c0.3,0,3,0,3.3,0s0.4,0,0.7,0
		c0.3,0,0.4,0,0.7,0c0.3,0,0.5,0,0.8,0l-20.1,65.2l-24.2,80l-28.4,93.4L341.6,583l-35.9,117.1l-40.6,133.5H774z"/>
	<path id="Layer_24_" fill="#FFFFFF" d="M1161.6,833.6c0,0.3,0,0.5,0,0.8s0,0.4,0,0.7s0,0.4,0,0.7s0,0.5,0,0.7c0,0.3,0,0.5,0,0.8
		s0,0.4,0,0.7s0,0.4,0,0.7s0,0.6,0,0.9h-7.5c0-0.3,0-0.6,0-0.9c0-0.3,0-0.4,0-0.7s0-0.4,0-0.7s0-0.5,0-0.8c0-0.2,0-0.4,0-0.7
		s0-0.4,0-0.7s0-0.4,0-0.7s0-0.5,0-0.8c-2-18.8-8.9-36.3-19.5-52.2c-10.4-15.5-24.7-29.3-41.5-40.7c-16.8-11.3-36.1-20.4-57.3-26.7
		c-21.1-6.1-44.1-9.7-68.1-9.7c-23.9,0-46.9,3.5-68,9.7s-40.6,15.3-57.3,26.7c-16.9,11.4-31.1,25.2-41.5,40.7
		c-10.6,15.7-17.5,33.4-19.5,52.2c0,0.3,0,0.5,0,0.8s0,0.4,0,0.7s0,0.4,0,0.7s0,0.5,0,0.7c0,0.3,0,0.5,0,0.8s0,0.4,0,0.7
		s0,0.4,0,0.7s0,0.7,0,0.9h-7.6c0-0.3,0-0.6,0-0.9c0-0.3,0-0.4,0-0.7s0-0.4,0-0.7s0-0.5,0-0.8c0-0.2,0-0.4,0-0.7s0-0.4,0-0.7
		s0-0.4,0-0.7s0-0.5,0.2-0.8c2-18.4,8.4-35.6,18.4-51.1c9.8-15.4,22.9-29.1,38.8-41c15.5-11.5,33.8-21.1,53.7-28.2
		c19.8-7.1,41.5-11.5,64.3-13.2c1.6-0.2,3-0.2,4.7-0.3c1.6-0.2,3.1-0.2,4.7-0.2c1.5,0,3.1-0.1,4.7-0.1c1.5,0,3.1,0,4.7,0
		c1.5,0,3.1,0,4.7,0c1.5,0,3.1,0,4.7,0.1c1.5,0,3.1,0.2,4.7,0.2c1.5,0.1,3,0.1,4.7,0.3c22.8,1.7,44.3,6.1,64.3,13.2
		c19.9,7.1,38.2,16.6,53.7,28.2c15.9,11.9,29,25.6,38.8,41C1153.2,798.1,1159.5,815.4,1161.6,833.6L1161.6,833.6z"/>
	<path id="Layer_25_" fill="#FFFFFF" d="M1154.1,833.6c0,0.3,0,0.5,0,0.8s0,0.4,0,0.7s0,0.4,0,0.7s0,0.5,0,0.7c0,0.3,0,0.5,0,0.8
		s0,0.4,0,0.7s0,0.4,0,0.7s0,0.7,0,0.9H973.8c0.1-0.1,0.9-0.9,1.1-1.1c0.1-0.1,0.1-0.4,0.3-0.7c0.1-0.3,0.1-0.4,0.1-0.7s0-0.5,0-0.8
		c0-0.2,0-0.4,0-0.7s-0.1-0.4-0.1-0.7s-0.2-0.4-0.3-0.7c-0.2-0.2-0.5-0.5-0.6-0.6L1154.1,833.6L1154.1,833.6z"/>
	<path id="Layer_26_" fill="#FFFFFF" d="M462.7,232.9c0-0.2,0.2-0.3,0.2-0.4c0-0.2,0.1-0.3,0.1-0.5c0-0.1,0.2-0.3,0.2-0.4
		c0-0.2,0.1-0.3,0.1-0.4l0.3-1.2h126.9l-0.6,2.8L462.7,232.9L462.7,232.9z"/>
	<path id="Layer_27_" fill-rule="evenodd" fill="#FFFFFF" d="M445.4,241.2c-0.3,0-0.5,0-0.7,0c-0.3,0-0.5,0-0.8,0s-0.4,0-0.7,0
		c-0.3,0-0.4,0-0.7,0h-2.3l3.4-11.3H464l-0.3,1.1c0,0.2-0.1,0.3-0.1,0.5c0,0.1-0.2,0.3-0.2,0.4c0,0.2-0.1,0.3-0.1,0.4
		c0,0.2-0.2,0.3-0.2,0.5c-0.2,0.4-0.5,1-1,1.5c-0.4,0.5-0.8,1-1.5,1.6c-0.6,0.4-1.2,0.9-2,1.4c-0.7,0.4-1.6,0.9-2.3,1.1
		c-0.7,0.5-1.7,0.8-2.5,1.1c-0.9,0.3-1.8,0.6-2.8,0.8c-0.8,0.3-1.8,0.5-2.8,0.6C447.3,240.9,446.2,241,445.4,241.2L445.4,241.2z
		 M447.9,232.7l-1.7,5.3c0.6,0,1.2-0.1,1.9-0.3c0.6-0.1,1.2-0.3,1.8-0.4c0.6-0.2,1-0.3,1.7-0.6c0.6-0.1,1-0.4,1.6-0.6
		c0.4-0.3,0.8-0.4,1.4-0.7c0.4-0.3,0.9-0.6,1.1-0.9c0.3-0.3,0.8-0.5,1.1-0.8c0.2-0.3,0.5-0.6,0.7-0.9h-9.6V232.7z"/>
	<path id="Layer_28_" fill="#FFFFFF" d="M1205.4,302.6l-9.4-69.9h5.6l10,73.2H722.4l10.1-73.2h5.6l-9.5,69.9L1205.4,302.6
		L1205.4,302.6z"/>
	<path id="Layer_29_" fill="#FFFFFF" d="M967.9,382.1c0.9,0,1.7,0.2,2.4,0.3c0.7,0.2,1.6,0.5,2,0.8c0.6,0.3,1,0.7,1.4,1.1
		c0.3,0.5,0.4,0.9,0.4,1.6c0,0.6-0.1,1-0.4,1.5c-0.3,0.5-0.7,0.9-1.4,1.2c-0.6,0.3-1.2,0.6-2,0.7c-0.7,0.2-1.7,0.3-2.4,0.3
		c-0.9,0-1.7-0.1-2.4-0.3c-0.8-0.1-1.6-0.4-2-0.7c-0.6-0.3-1-0.7-1.4-1.2c-0.3-0.4-0.5-0.8-0.5-1.5c0-0.5,0.2-1,0.5-1.6
		c0.3-0.4,0.7-0.8,1.4-1.1c0.6-0.3,1.1-0.6,2-0.8C966.2,382.3,966.9,382.1,967.9,382.1z"/>
	<path id="Layer_30_" fill-rule="evenodd" fill="#FFFFFF" d="M836.7,478.6l-3.6-3.1h269.5l-3.6,3.1l-0.1,0.2l-0.2,0.1l-0.1,0.2
		l-0.2,0.1c-3.5,3.2-7.5,6.2-11.5,9.1c-4.3,2.9-8.6,5.6-13.3,8.2c-4.7,2.5-9.7,5-14.8,7.1c-5.2,2.3-10.6,4.2-16.2,6
		c-5.7,1.8-11.5,3.5-17.6,5c-6,1.4-12.3,2.5-18.4,3.6c-6.2,0.8-12.7,1.7-19,2.1c-6.3,0.4-12.8,0.7-19.4,0.7
		c-6.5,0-12.9-0.3-19.2-0.7s-12.9-1.2-19-2.1c-6.2-0.9-12.4-2.2-18.4-3.6c-6-1.4-11.9-3.1-17.7-5c-5.5-1.9-11-3.7-16.1-6
		s-10.1-4.6-14.8-7.1c-4.7-2.6-9.1-5.3-13.3-8.2c-4.1-2.8-8-5.8-11.7-8.8c-0.1-0.2-0.1-0.2-0.2-0.3c-0.2-0.2-0.2-0.2-0.3-0.2
		c-0.2,0-0.2-0.1-0.3-0.1C836.9,478.8,836.9,478.6,836.7,478.6L836.7,478.6z M1089.8,479.5l-244.2-0.1c3.3,2.7,7,5.4,10.8,7.8
		c3.8,2.6,7.9,4.9,12.1,7.1c4.3,2.3,8.8,4.4,13.3,6.2c4.7,2,9.5,3.7,14.5,5.3c5.5,1.8,11.2,3.2,17,4.7c5.7,1.4,11.5,2.5,17.7,3.4
		c6,0.9,12.1,1.7,18.2,2.1c6.2,0.5,12.4,0.7,18.5,0.7c6.2,0,12.4-0.2,18.6-0.7c6.1-0.4,12.2-1.1,18.2-2.1c6-0.9,12-2.1,17.7-3.4
		c5.7-1.5,11.4-2.9,17-4.7c4.9-1.7,9.8-3.5,14.5-5.3c4.7-2,9.1-4.1,13.2-6.2c4.3-2.2,8.3-4.5,12.2-7.1
		C1082.9,484.8,1086.5,482.2,1089.8,479.5L1089.8,479.5z"/>
	<path id="Layer_31_" fill="#FFFFFF" d="M975.9,832.9c0.2,0.1,0.3,0.5,0.5,0.6c0.2,0.2,0.2,0.5,0.3,0.8c0.2,0.4,0.2,0.5,0.2,0.8
		c0,0.4,0,0.5,0,0.8c0,0.4,0,0.5,0,0.8c0,0.4-0.2,0.5-0.2,0.9c-0.1,0.3-0.1,0.4-0.3,0.8c-0.2,0.1-0.3,0.9-0.5,1.1h-15.6
		c-0.2-0.2-0.3-1-0.5-1.1c-0.2-0.2-0.2-0.5-0.3-0.8c-0.2-0.4-0.2-0.5-0.2-0.9c0-0.3,0-0.4,0-0.8c0-0.3,0-0.4,0-0.8
		c0-0.3,0.2-0.4,0.2-0.8c0.1-0.3,0.1-0.5,0.3-0.8c0.2-0.1,0.3-0.5,0.5-0.6c0.3-0.5,0.8-1,1.4-1.4c0.5-0.5,1.1-0.8,1.9-1.1
		c0.6-0.4,1.4-0.5,2.2-0.7c0.8-0.1,1.6-0.3,2.4-0.3s1.7,0.2,2.4,0.3c0.8,0.2,1.6,0.3,2.2,0.7c0.7,0.3,1.4,0.6,1.9,1.1
		C975.1,831.9,975.6,832.4,975.9,832.9L975.9,832.9z"/>
	<path id="Layer_32_" fill="#FFFFFF" d="M1472.7,232.7h-128.9l-0.6-2.8h128.5l0.3,1.1c0,0.2,0.2,0.3,0.2,0.5c0,0.1,0.1,0.3,0.1,0.4
		c0,0.2,0.1,0.3,0.1,0.4C1472.6,232.4,1472.6,232.6,1472.7,232.7z"/>
	<path id="Layer_33_" fill-rule="evenodd" fill="#FFFFFF" d="M1471.7,229.9h20.7l3.7,11.3c-0.3,0-3.3,0-3.6,0c-0.2,0-0.4,0-0.7,0
		s-0.4,0-0.7,0s-0.4,0-0.7,0c-0.9-0.2-2-0.2-2.9-0.3c-0.9-0.2-2-0.3-2.9-0.6c-0.8-0.3-1.8-0.4-2.7-0.9c-0.8-0.3-1.7-0.6-2.5-1
		s-1.6-0.7-2.3-1.2c-0.7-0.4-1.4-0.8-2-1.4c-0.6-0.4-1-0.8-1.5-1.5c-0.5-0.4-0.8-1-1.1-1.6c0-0.1-0.1-0.3-0.1-0.4
		c0-0.1-0.1-0.3-0.1-0.4c0-0.2-0.2-0.3-0.2-0.5c0-0.1-0.1-0.3-0.1-0.4L1471.7,229.9z M1489.5,238l-1.7-5.2h-9.6
		c0.2,0.2,0.5,0.5,0.8,0.8s0.6,0.6,1,0.9c0.3,0.3,0.7,0.6,1.1,0.9c0.5,0.3,0.9,0.4,1.4,0.7s1.1,0.4,1.6,0.6c0.6,0.1,1,0.4,1.7,0.5
		c0.6,0.2,1.2,0.4,1.8,0.5C1488.2,237.9,1488.8,237.9,1489.5,238L1489.5,238z"/>
	<path id="Layer_34_" fill="#FFFFFF" d="M960.9,833.6c-0.1,0.2-0.3,0.5-0.4,0.6c-0.2,0.2-0.2,0.5-0.3,0.7c-0.2,0.3-0.2,0.5-0.2,0.8
		s0,0.4,0,0.7s0,0.4,0,0.7s0.2,0.5,0.2,0.7c0.1,0.3,0.1,0.5,0.3,0.8c0.1,0.1,0.7,0.9,0.8,1H781c0-0.3,0-0.9,0-1.2s0-0.4,0-0.7
		s0-0.4,0-0.7s0-0.5,0-0.7c0-0.3,0-0.5,0-0.8s0-0.4,0-0.7s0-0.4,0-0.7s0-0.2,0-0.5L960.9,833.6z"/>
	<path id="Layer_35_" fill="#FFFFFF" d="M1490.4,241.2c0.3,0,0.4,0,0.7,0c0.3,0,0.5,0,0.8,0s0.4,0,0.7,0c0.3,0,0.4,0,0.7,0h2.7
		l183.7,597.9l0.1,0.6h-518.9c0-0.3,0.5-0.5,0.5-0.8s0-0.4,0-0.7s0-0.4,0-0.7s0-0.5,0-0.8c0-0.2,0-0.4,0-0.7s0-0.4,0-0.7
		s0-0.4,0-0.7s-0.5-0.6-0.5-0.9h509.5l-40.8-133.5L1594,582.8l-31.4-103.3l-28.3-93.4l-24.3-80L1490.4,241.2z"/>
	<path id="Layer_36_" fill="#858585" d="M1704.7,905.5l-10.4,35.5H242.9l-10.8-35.5H1704.7z"/>
	<path id="Layer_37_" fill="#7B7B7B" d="M232.1,905.5l10.8,35.5c-0.4,0-1,0-1.5,0s-0.9,0-1.6,0c-0.4,0-0.8,0-1.5,0
		c-0.4,0-0.9,0-1.4-0.2L226,905.3c0.5,0,0.9,0,1.6,0.2c0.4,0,0.9,0,1.5,0c0.5,0,0.9,0,1.6,0C231.1,905.5,231.6,905.5,232.1,905.5
		L232.1,905.5z"/>
	<path id="Layer_38_" fill="#777777" d="M226.1,905.3l10.9,35.5c-0.6,0-1-0.1-1.7-0.1c-0.6,0-1-0.2-1.6-0.2c-0.4,0-1-0.1-1.5-0.2
		c-0.4-0.2-1-0.2-1.6-0.3l-11-35.5c0.5,0.1,1.1,0.1,1.6,0.3c0.4,0.1,1,0.1,1.6,0.3c0.5,0,1,0.1,1.6,0.1
		C225.1,905.1,225.7,905.3,226.1,905.3L226.1,905.3z"/>
	<path id="Layer_39_" fill="#737373" d="M219.9,904.4l10.9,35.5c-0.5-0.2-1-0.2-1.7-0.3c-0.5-0.2-1-0.3-1.7-0.3
		c-0.5-0.2-1-0.3-1.5-0.5c-0.4-0.1-1-0.2-1.6-0.4l-11.8-35.5c0.4,0.2,1.9,0.3,2.3,0.5c0.6,0.1,1,0.2,1.7,0.4c0.6,0.1,1,0.3,1.7,0.3
		C218.8,904.2,219.4,904.4,219.9,904.4z"/>
	<path id="Layer_40_" fill="#6F6F6F" d="M213.8,903.3l10.9,35.1c-0.6-0.1-1.6-0.4-2.1-0.6c-0.6-0.1-1.2-0.4-1.9-0.5
		c-0.6-0.3-1.1-0.5-1.8-0.8c-0.6-0.3-1.2-0.4-1.7-0.7L206,900.3c-0.1,0,1.7,0.7,1.7,0.7c0.6,0.3,1.9,0.8,1.9,0.8
		c1.6,0.5,1.8,0.7,1.8,0.7C212.2,902.5,213.1,903.2,213.8,903.3L213.8,903.3z"/>
	<path id="Layer_41_" fill="#6B6B6B" d="M206.3,900.2l11.1,35.4c-2.4-1.2-4.5-2.4-6.5-4c-2-1.5-3.7-3-5.3-4.8
		c-1.5-1.9-3-3.6-4.1-5.6c-1.2-2-2.1-4.1-2.7-6.1L188.2,881c0.7,2.2,0.9,2.8,2.2,4.8c1.1,2,2.5,4,4.1,5.6c1.7,1.8,3.4,3.3,5.4,4.8
		C201.6,897.7,203.4,898.6,206.3,900.2z"/>
	<path id="Layer_42_" fill="#8B8B8B" d="M1747.4,883l-11.2,35.5c-0.9,2-2.2,3.8-3.5,5.7c-1.4,1.8-2.8,3.4-4.7,5.1
		c-1.8,1.6-3.5,3-5.7,4.3c-2.1,1.4-4.7,2.5-7.1,3.5l10.9-35.6c2.4-0.9,5.4-2.1,7.5-3.4c2.1-1.4,4.1-2.7,5.9-4.3
		c1.8-1.5,3.2-3.3,4.7-5.1C1745.3,886.8,1746.3,885.1,1747.4,883L1747.4,883z"/>
	<path id="Layer_43_" fill="#878787" d="M1726.5,901.5l-11.3,35.6c-0.6,0.3-1,0.3-1.8,0.6c-0.6,0.3-1.4,0.5-2,0.6
		c-0.6,0.2-1.4,0.5-2.2,0.6c-0.7,0.1-1.7,0.6-2.4,0.7l11.3-35.8c0.7-0.1,1.6-0.3,2.1-0.4c0.8-0.1,1.4-0.4,2.2-0.6
		c0.7-0.1,1.4-0.4,2-0.6C1725.2,902,1725.8,901.8,1726.5,901.5L1726.5,901.5z"/>
	<path id="Layer_44_" fill="#838383" d="M1718.2,904.1l-10.9,35.5c-0.6,0.1-1,0.3-1.7,0.3c-0.6,0.1-1.1,0.1-1.7,0.3
		c-0.6,0.1-1.2,0.1-1.9,0.2c-0.5,0.2-1.1,0.2-1.8,0.2l10.8-35.5c0.6,0,1.2-0.1,1.9-0.1c0.6-0.2,1.1-0.2,1.8-0.3
		c0.6-0.2,1.2-0.2,1.7-0.3C1716.9,904.2,1717.7,904.1,1718.2,904.1L1718.2,904.1z"/>
	<path id="Layer_45_" fill="#7F7F7F" d="M1711.4,905.1l-10.9,35.5c-0.5,0-1,0.1-1.7,0.1c-0.5,0-1,0.2-1.7,0.2c-0.5,0-1,0-1.6,0
		s-1.1,0-1.8,0l10.9-35.5c0.6,0,1.2,0,1.7,0c0.4,0,1,0,1.7,0s1,0,1.7-0.2C1710.3,905.1,1710.8,905.1,1711.4,905.1z"/>
	<path id="Layer_46_" fill-rule="evenodd" fill="#B5B5B5" d="M1483.9,192.9c5.8,0,11.5,0.6,17.1,2c5.4,1.2,10.5,3,15.2,5.3
		c4.6,2.3,8.6,4.8,11.8,7.8c3.2,3,5.4,6.2,6.7,9.7l213.9,640c2.1,6.5,2.5,12.8,1.5,18.5c-1,5.8-3.7,11-7.8,15.4
		c-4.1,4.5-9.4,8-15.7,10.5c-6.5,2.4-13.9,3.8-22.2,3.8H232.5c-8.2,0-15.8-1.4-22.2-3.8c-6.3-2.5-11.8-6-15.7-10.5
		c-3.8-4.4-6.7-9.6-7.7-15.4c-1-5.7-0.7-11.9,1.6-18.5l213.8-640c0.3-0.8,0.6-1.6,1-2.4c-0.3,0.7-0.6,1.4-0.8,2.1l-213.6,640
		c-2.1,6.6-2.6,12.6-1.5,18.3c1,5.5,3.7,10.7,7.7,15.1c3.8,4.4,9.2,7.8,15.4,10.2c6.2,2.5,13.7,3.8,21.8,3.8h1471.3
		c8.1,0,15.5-1.4,21.8-3.8c6.3-2.4,11.4-5.8,15.4-10.2s6.5-9.4,7.7-15.1c1-5.7,0.6-11.8-1.5-18.3l-213.6-640c-1-3.3-3.3-6.5-6.5-9.5
		c-3-2.9-7-5.4-11.5-7.7c-4.5-2.1-9.5-4-14.9-5.1c-5.5-1.2-11.1-1.9-16.8-1.9H452.1c-5.7,0-11.4,0.6-16.8,1.9c0,0,0,0-0.1,0
		c0.2-0.1,0.5-0.1,0.7-0.2c5.4-1.1,11.1-2,17.1-2L1483.9,192.9z M408.9,207.9c3.2-2.8,7.1-5.5,11.8-7.8c4.4-2.2,9.3-3.7,14.6-5.1
		c-5.4,1.2-10.3,3-14.9,5.1c-4.5,2.1-8.4,4.8-11.4,7.7c-2.4,2.3-4.3,4.8-5.6,7.4C404.7,212.7,406.6,210.3,408.9,207.9z"/>
</g>
<image width="261" height="86" id="Layer_48_" xlink:href="39228E70.png"  transform="matrix(1 0 0 1 838 107)">
</image>
<g>
	<g>
		<image width="257" height="82" xlink:href="39228E7E.png"  transform="matrix(1 0 0 1 840 109)">
		</image>
	</g>
</g>
<g>
	<g>
		<image width="285" height="23" xlink:href="39228E75.png"  transform="matrix(1 0 0 1 826 109)">
		</image>
	</g>
</g>
<path id="Layer_187_" fill="none" stroke="#FFFFFF" stroke-width="7.5" stroke-linejoin="round" d="M822.1,232.5V135h292.7v97.5"/>
<image width="401" height="125" id="Layer_x0020_1" xlink:href="39228E77.png"  transform="matrix(1 0 0 1 772 432)">
</image>
</svg>
