<?xml version="1.0" encoding="utf-8"?>
<!-- Generator: Adobe Illustrator 27.7.0, SVG Export Plug-In . SVG Version: 6.00 Build 0)  -->
<svg version="1.2" baseProfile="tiny" id="Layer_1" xmlns="http://www.w3.org/2000/svg" xmlns:xlink="http://www.w3.org/1999/xlink"
	 x="0px" y="0px" viewBox="0 0 1920 1040" overflow="visible" xml:space="preserve">
<g id="Layer_34_">
	<g>
		<g>
			<image width="1420" height="1050" xlink:href="5F2F57D8.png"  transform="matrix(1 0 0 1 -16 -14)">
			</image>
		</g>
		<path id="Layer_70_" fill="#488A0A" d="M1306.5-11.9h-96.6v1049h96.6V-11.9z"/>
		<path id="Layer_66_" fill="#488A0A" d="M1506.1-11.9h-103v1049h103V-11.9z"/>
		<path id="Layer_64_" fill="#488A0A" d="M1714-11.9h-105v1049h105V-11.9z"/>
		<path id="Layer_62_" fill="#377508" d="M1403.1-11.9h-96.6v1049h96.6V-11.9z"/>
		<path id="Layer_58_" fill="#377508" d="M1609-11.9h-102.9v1049H1609V-11.9z"/>
		<path id="Layer_56_" fill="#377508" d="M1822.7-11.9h-108.8v1049h108.8V-11.9L1822.7-11.9z"/>
		<path id="Layer_55_" fill="#488A0A" d="M1822.7-11.9h108.7v1049h-108.7V-11.9z"/>
		<image width="712" height="1051" id="Layer_54_" xlink:href="5F2F57D9.png"  transform="matrix(1 0 0 1 1209 -12)">
		</image>
	</g>
</g>
<image width="1933" height="1046" xlink:href="5F2F57DF.png"  transform="matrix(1 0 0 1 -5 -8)">
</image>
<g id="Layer_20_">
	<path id="Layer" fill="#759F4F" stroke="#CDCDCD" stroke-width="0.7" d="M1468.3,84.4c22.8,0,41.3,18.5,41.3,41.3v789.6
		c0,22.8-18.5,41.3-41.3,41.3H451.9c-22.9,0-41.4-18.5-41.4-41.3V125.7c0-22.8,18.5-41.3,41.4-41.3L1468.3,84.4z"/>
	<path id="Layer_1_" fill="#488A0A" d="M1461,135.7v121.9H459.2V135.7H1461z"/>
	<path id="Layer_2_" fill="#488A0A" d="M1461,379.5v129.9H459.2V379.5H1461z"/>
	<path id="Layer_3_" fill="#488A0A" d="M1461,639.2v132.5H459.2V639.2H1461z"/>
	<path id="Layer_4_" fill="#377508" d="M1461,257.6v121.9H459.2V257.6H1461z"/>
	<path id="Layer_5_" fill="#377508" d="M1461,509.4v129.8H459.2V509.4H1461z"/>
	<path id="Layer_6_" fill="#377508" d="M1461,771.7v137.2H459.1V771.7H1461z"/>
	<g>
		<g>
			<image width="1012" height="796" xlink:href="5F2F57DA.png"  transform="matrix(1 0 0 1 454 115)">
			</image>
		</g>
	</g>
</g>
<image width="400" height="126" id="Layer_x0020_1" xlink:href="5F2F57DB.png"  transform="matrix(1 0 0 1 783 476)">
</image>
</svg>
