<?xml version="1.0" encoding="utf-8"?>
<!-- Generator: Adobe Illustrator 27.7.0, SVG Export Plug-In . SVG Version: 6.00 Build 0)  -->
<svg version="1.2" baseProfile="tiny" id="Layer_1" xmlns="http://www.w3.org/2000/svg" xmlns:xlink="http://www.w3.org/1999/xlink"
	 x="0px" y="0px" viewBox="0 0 8000 4333" overflow="visible" xml:space="preserve">
<g id="Layer_47_">
	<g>
		<g>
			<g>
				<g>
					<image width="5858" height="4442" xlink:href="F9E351E3.png"  transform="matrix(1 0 0 1 -6 12)">
					</image>
				</g>
			</g>
		</g>
		<path id="Layer_70_" fill="#488A0A" d="M5450.9,17.9h-398.7V4459h398.7V17.9z"/>
		<path id="Layer_66_" fill="#488A0A" d="M6274.3,17.9h-425.2V4459h425.2V17.9z"/>
		<path id="Layer_64_" fill="#488A0A" d="M7132.5,17.9h-433.4V4459h433.4V17.9z"/>
		<path id="Layer_62_" fill="#377508" d="M5849.6,17.9h-398.7V4459h398.7V17.9z"/>
		<path id="Layer_58_" fill="#377508" d="M6699.1,17.9h-424.7V4459h424.7V17.9z"/>
		<path id="Layer_56_" fill="#377508" d="M7581.2,17.9h-449.1V4459h449.1V17.9L7581.2,17.9z"/>
		<path id="Layer_55_" fill="#488A0A" d="M7581.2,17.9h448.7V4459h-448.7V17.9z"/>
		<image width="2933" height="4450" id="Layer_54_" xlink:href="F9E351E1.png"  transform="matrix(1 0 0 1 5052 17)">
		</image>
	</g>
</g>
<image width="7978" height="4426" xlink:href="F9E351E7.png"  transform="matrix(1 0 0 1 39 36)">
</image>
<image width="4426" height="4028" xlink:href="F9E351E0.png"  transform="matrix(1 0 0 1 1787 27)">
</image>
<image width="1300" height="405" id="Layer_x0020_1" xlink:href="F9E351EE.png"  transform="matrix(1 0 0 1 3321 1516)">
</image>
</svg>
