<?xml version="1.0" encoding="utf-8"?>
<!-- Generator: Adobe Illustrator 27.7.0, SVG Export Plug-In . SVG Version: 6.00 Build 0)  -->
<svg version="1.2" baseProfile="tiny" id="Layer_1" xmlns="http://www.w3.org/2000/svg" xmlns:xlink="http://www.w3.org/1999/xlink"
	 x="0px" y="0px" viewBox="0 0 8000 4333" overflow="visible" xml:space="preserve">
<g id="Layer_47_">
	<g>
		<g>
			<g>
				<g>
					<image width="5877" height="4344" xlink:href="2DCA7840.png"  transform="matrix(1 0 0 1 -21 14)">
					</image>
				</g>
			</g>
		</g>
		<path id="Layer_70_" fill="#488A0A" d="M5453.4,19.9h-400v4343.4h400V19.9z"/>
		<path id="Layer_66_" fill="#488A0A" d="M6279.4,19.9H5853v4343.4h426.5V19.9H6279.4z"/>
		<path id="Layer_64_" fill="#488A0A" d="M7140.2,19.9h-434.7v4343.4h434.7V19.9z"/>
		<path id="Layer_62_" fill="#377508" d="M5853.4,19.9h-400v4343.4h400V19.9z"/>
		<path id="Layer_58_" fill="#377508" d="M6705.5,19.9h-426.1v4343.4h426.1V19.9z"/>
		<path id="Layer_56_" fill="#377508" d="M7590.3,19.9h-450.5v4343.4h450.5V19.9L7590.3,19.9z"/>
		<path id="Layer_55_" fill="#488A0A" d="M7590.3,19.9h450.1v4343.4h-450.1V19.9z"/>
		<path id="Layer_54_" fill="#3C8009" d="M5053.4,19.9l2941.4,7.5v4343.4l-2941.4-7.5V19.9L5053.4,19.9z"/>
	</g>
</g>
<rect x="25.7" y="37.7" width="8001" height="4328"/>
<image width="1163" height="363" id="Layer_x0020_1" xlink:href="2DCA7841.png"  transform="matrix(1 0 0 1 3411 1546)">
</image>
</svg>
