<?xml version="1.0" encoding="utf-8"?>
<!-- Generator: Adobe Illustrator 27.7.0, SVG Export Plug-In . SVG Version: 6.00 Build 0)  -->
<svg version="1.2" baseProfile="tiny" id="Layer_1" xmlns="http://www.w3.org/2000/svg" xmlns:xlink="http://www.w3.org/1999/xlink"
	 x="0px" y="0px" viewBox="0 0 1920 1040" overflow="visible" xml:space="preserve">
<g id="Layer_47_">
	<g>
		<g>
			<g>
				<image width="1420" height="1050" xlink:href="80148A51.png"  transform="matrix(1 0 0 1 -18 -6)">
				</image>
			</g>
		</g>
		<path id="Layer_70_" fill="#488A0A" d="M1304-4.2h-96.6v1049h96.6V-4.2z"/>
		<path id="Layer_66_" fill="#488A0A" d="M1503.5-4.2h-103v1049h103V-4.2z"/>
		<path id="Layer_64_" fill="#488A0A" d="M1711.4-4.2h-105v1049h105V-4.2z"/>
		<path id="Layer_62_" fill="#377508" d="M1400.6-4.2H1304v1049h96.6V-4.2z"/>
		<path id="Layer_58_" fill="#377508" d="M1606.4-4.2h-102.9v1049h102.9V-4.2z"/>
		<path id="Layer_56_" fill="#377508" d="M1820.1-4.2h-108.8v1049h108.8V-4.2L1820.1-4.2z"/>
		<path id="Layer_55_" fill="#488A0A" d="M1820.1-4.2h108.7v1049h-108.7V-4.2z"/>
		<image width="711" height="1052" id="Layer_54_" xlink:href="80148A53.png"  transform="matrix(1 0 0 1 1207 -5)">
		</image>
	</g>
</g>
<image width="1933" height="1046" xlink:href="80148A56.png"  transform="matrix(1 0 0 1 -7 0)">
</image>
<g>
	<g>
		<g>
			<image width="1921" height="1040" xlink:href="80148A57.png"  transform="matrix(1 0 0 1 21 0)">
			</image>
		</g>
	</g>
</g>
<image width="400" height="125" id="Layer_x0020_1" xlink:href="80148A52.png"  transform="matrix(1 0 0 1 786 443)">
</image>
</svg>
