<?xml version="1.0" encoding="utf-8"?>
<!-- Generator: Adobe Illustrator 27.7.0, SVG Export Plug-In . SVG Version: 6.00 Build 0)  -->
<svg version="1.2" baseProfile="tiny" id="Layer_1" xmlns="http://www.w3.org/2000/svg" xmlns:xlink="http://www.w3.org/1999/xlink"
	 x="0px" y="0px" viewBox="0 0 1920 1040" overflow="visible" xml:space="preserve">
<g id="Layer_34_">
	<g>
		<g>
			<image width="1420" height="1050" xlink:href="E4D02059.png"  transform="matrix(1 0 0 1 -18 -9)">
			</image>
		</g>
		<path id="Layer_70_" fill="#488A0A" d="M1304-6.7h-96.6v1049h96.6V-6.7z"/>
		<path id="Layer_66_" fill="#488A0A" d="M1503.5-6.7h-103v1049h103V-6.7z"/>
		<path id="Layer_64_" fill="#488A0A" d="M1711.4-6.7h-105v1049h105V-6.7z"/>
		<path id="Layer_62_" fill="#377508" d="M1400.6-6.7H1304v1049h96.6V-6.7z"/>
		<path id="Layer_58_" fill="#377508" d="M1606.4-6.7h-102.9v1049h102.9V-6.7z"/>
		<path id="Layer_56_" fill="#377508" d="M1820.1-6.7h-108.8v1049h108.8V-6.7L1820.1-6.7z"/>
		<path id="Layer_55_" fill="#488A0A" d="M1820.1-6.7h108.7v1049h-108.7V-6.7z"/>
		<image width="711" height="1052" id="Layer_54_" xlink:href="E4D0205B.png"  transform="matrix(1 0 0 1 1207 -7)">
		</image>
	</g>
</g>
<image width="1933" height="1046" xlink:href="E4D0205E.png"  transform="matrix(1 0 0 1 -7 -3)">
</image>
<g id="Layer_27_">
	<path id="Layer" fill="#488A0A" d="M101.1,772.7c-11.6,24,8.5,29.3,20,29h1750l10.5-0.5c20.8-3.2,22-14.7,20-20
		c-78.8-198-237.5-596.7-241.5-607.5c-4-10.8-19.3-13.5-26.5-13.5c-409.8,0.7-1235.3,1.6-1258.5,0c-23.2-1.6-33,6.7-35,11
		L101.1,772.7z"/>
	<path id="Layer_1_" fill="#488A0A" d="M1621.8,800.8l-174-640.3h104.3l214.4,640.3H1621.8z"/>
	<path id="Layer_2_" fill="#488A0A" d="M1317.1,800.8l-88.7-640.3h110.1L1470,800.8H1317.1z"/>
	<path id="Layer_3_" fill="#488A0A" d="M681.9,800.8l88.9-640.3h112.3l-45.2,640.3H681.9z"/>
	<path id="Layer_4_" fill="#488A0A" d="M377.3,800.8l173.9-640.3h109.4L529.1,800.8H377.3z"/>
	<path id="Layer_5_" fill="#377508" d="M1632.9,160.5c3,0,5.9,0.2,8.8,0.9c2.8,0.5,5.4,1.4,7.8,2.4c2.3,1.1,4.5,2.3,6.1,3.7
		c1.6,1.3,2.8,2.8,3.5,4.5l241.1,607.4c1.1,2.7,1.4,5.4,1.1,7.8c-0.4,2.5-1.4,4.8-3,6.7s-3.9,3.5-6.6,4.7s-6,2-9.6,2.3h-115.3
		l-214.7-640.4H1632.9z"/>
	<path id="Layer_6_" fill="#488A0A" d="M340.5,171.8c0.6-1.6,1.9-3.1,3.5-4.4c1.6-1.4,3.6-2.6,6.1-3.7c2.3-1.1,5-1.9,7.8-2.4
		c2.9-0.6,5.8-1,8.8-1h80.4L232.5,800.8H117.6c-3.6-0.3-6.9-1.1-9.6-2.3s-5-2.9-6.6-4.8c-1.6-1.9-2.7-4.2-3-6.6
		c-0.4-2.4,0-5.1,1.1-7.8L340.5,171.8z"/>
	<path id="Layer_7_" fill="#377508" d="M837.9,800.9l45.2-640.4h116.5l-0.1,640.4H837.9z"/>
	<path id="Layer_8_" fill="#488A0A" d="M999.5,800.9l0.1-640.4h116.3l45.2,640.3L999.5,800.9z"/>
	<path id="Layer_9_" fill="#377508" d="M232.5,800.8l214.4-640.3h104.3L377.3,800.8H232.5z"/>
	<path id="Layer_10_" fill="#377508" d="M529.1,800.8l131.5-640.3h110.2l-88.9,640.3H529.1z"/>
	<path id="Layer_11_" fill="#377508" d="M1470,800.8l-131.5-640.3h109.3l174,640.3H1470z"/>
	<path id="Layer_12_" fill="#377508" d="M1161.1,800.8l-45.2-640.3h112.5l88.7,640.3H1161.1z"/>
	<path id="Layer_13_" fill="#8B8B8B" d="M1902.4,789.8l-10.7,33.4c-0.2,0.3-0.3,0.7-0.4,1c-0.2,0.2-0.3,0.7-0.4,0.9
		c-0.2,0.3-0.3,0.7-0.6,1c-0.1,0.2-0.4,0.5-0.5,0.8l10.7-33.4c0.1-0.3,0.4-0.6,0.5-0.8c0.1-0.3,0.4-0.6,0.6-1
		c0.1-0.4,0.2-0.7,0.4-0.9C1902.1,790.4,1902.2,790.1,1902.4,789.8z"/>
	<path id="Layer_14_" fill="#909090" d="M1900.5,793.5l-10.7,33.4c-0.4,0.7-1,1.2-1.5,1.7c-0.6,0.6-1.1,1.1-1.8,1.7
		c-0.6,0.5-1.3,0.9-2,1.5c-0.7,0.4-1.5,0.8-2.3,1.2l10.6-33.4c0.8-0.5,1.6-0.9,2.3-1.3c0.6-0.4,1.3-0.9,2-1.5c0.7-0.5,1.2-1,1.7-1.6
		C1899.7,794.7,1900.1,794.1,1900.5,793.5L1900.5,793.5z"/>
	<path id="Layer_15_" fill="#8B8B8B" d="M1892.9,799.6l-10.6,33.4c-0.4,0.1-0.6,0.2-1,0.5c-0.5,0.1-0.9,0.3-1.3,0.4
		c-0.4,0.1-0.8,0.3-1.2,0.4c-0.4,0.1-0.8,0.3-1.2,0.4l10.6-33.4c0.4-0.1,0.8-0.3,1.3-0.4c0.4-0.1,0.8-0.3,1.2-0.4
		c0.4-0.1,0.8-0.3,1.2-0.4C1892.2,799.8,1892.5,799.7,1892.9,799.6z"/>
	<path id="Layer_16_" fill="#878787" d="M1888.2,801.3l-10.5,33.4c-0.3,0.1-0.8,0-1.2,0.2c-0.2,0.1-0.6,0.1-0.9,0.1s-0.7,0.1-1,0.1
		c-0.2,0-0.7,0.2-0.9,0.2l10.5-33.4c0.3,0,0.7-0.2,1-0.2s0.7-0.1,0.9-0.1c0.3,0,0.7-0.2,1-0.2C1887.5,801.3,1888,801.4,1888.2,801.3
		z"/>
	<path id="Layer_17_" fill="#838383" d="M1884.2,801.9l-10.5,33.4c-0.3,0-0.6,0.1-0.8,0.1c-0.3,0-0.6,0-0.8,0.1c-0.3,0-0.5,0-0.8,0
		s-0.6,0-1,0l10.4-33.4c0.3,0,0.6,0,1,0s0.5,0,0.9,0s0.6,0,0.8-0.1C1883.7,802,1884,802,1884.2,801.9z"/>
	<path id="Layer_18_" fill="#7F7F7F" d="M1880.7,802.3l-10.4,33.4c-0.1,0-0.3,0-0.4,0s-0.3,0-0.4,0s-0.3,0-0.4,0s-0.3,0-0.4,0
		l10.4-33.4c0.1,0,0.3,0,0.4,0s0.3,0,0.4,0s0.3,0,0.4,0S1880.6,802.3,1880.7,802.3z"/>
	<path id="Layer_19_" fill="#858585" d="M1879.1,802.3l-10.4,33.4H130.8l-10.5-33.4H1879.1z"/>
	<path id="Layer_20_" fill="#7F7F7F" d="M120.3,802.3l10.5,33.4c-0.1,0-0.3,0-0.4,0s-0.3,0-0.4,0s-0.3,0-0.5,0c-0.1,0-0.6,0-0.7,0
		l-10.5-33.4c0.2,0,0.7,0,0.8,0c0.1,0,0.3,0,0.4,0s0.3,0,0.4,0C120.1,802.3,120.2,802.3,120.3,802.3z"/>
	<path id="Layer_21_" fill="#7B7B7B" d="M118.5,802.3l10.4,33.4c-0.3,0-0.5,0-0.8,0c-0.6,0-1.2-0.1-1.7-0.2l-0.8-0.1L115.1,802
		L118.5,802.3z"/>
	<path id="Layer_22_" fill="#777777" d="M115.2,802l10.6,33.4c-0.3,0-0.6-0.1-0.9-0.1c-0.2,0-0.5-0.2-0.8-0.2
		c-0.2,0-0.5-0.1-0.8-0.1c-0.2,0-0.5-0.1-0.8-0.1L112,801.4c0.2,0,0.5,0.2,0.8,0.2c0.2,0,0.5,0.1,0.8,0.1s0.5,0.2,0.8,0.2
		S114.9,801.9,115.2,802L115.2,802z"/>
	<path id="Layer_23_" fill="#737373" d="M112.1,801.5l10.5,33.4c-0.2,0-0.5-0.2-0.8-0.2c-0.2-0.1-0.5-0.1-0.8-0.2
		c-0.2-0.2-0.5-0.2-0.8-0.3s-0.6-0.1-0.8-0.3l-10.6-33.4c0.3,0.1,0.6,0.1,0.9,0.3c0.2,0.1,0.5,0.1,0.8,0.2c0.2,0.2,0.5,0.2,0.8,0.3
		C111.4,801.3,111.8,801.5,112.1,801.5z"/>
	<path id="Layer_24_" fill="#6F6F6F" d="M108.8,800.6l10.6,33.4c-0.3-0.2-0.7-0.3-0.9-0.4c-0.3-0.2-0.6-0.3-1-0.4
		c-0.3-0.1-0.5-0.3-0.8-0.4c-0.3-0.2-0.7-0.3-1-0.4l-10.5-33.5c0.3,0.2,0.7,0.3,0.9,0.4c0.3,0.1,0.6,0.3,0.9,0.5
		c0.2,0.1,0.5,0.2,0.9,0.4C108.2,800.3,108.4,800.4,108.8,800.6z"/>
	<path id="Layer_25_" fill="#6B6B6B" d="M105.2,798.9l10.5,33.4c-1-0.5-2-1.2-2.8-1.9s-1.6-1.4-2.3-2.2c-0.7-0.8-1.2-1.6-1.8-2.4
		c-0.5-0.8-0.9-1.8-1.2-2.7l-10.7-33.4c0.3,0.9,0.7,1.9,1.3,2.7c0.5,0.8,1,1.6,1.7,2.4c0.7,0.8,1.5,1.5,2.3,2.2
		C103.3,797.8,104.2,798.3,105.2,798.9z"/>
	<path id="Layer_26_" fill-rule="evenodd" fill="#BBBBBB" d="M1632.6,159.8c3.1,0,6.2,0.2,9.2,0.9c3,0.6,5.8,1.5,8.3,2.6
		s4.7,2.4,6.4,3.8c1.8,1.5,3,3.1,3.7,4.7l241.5,607.5c1.2,3.1,1.5,6,1.1,8.9c-0.6,2.7-1.9,5.3-4,7.3c-2,2-4.8,3.8-8.1,5
		c-3.4,1.2-7.3,1.8-11.6,1.8H120.3c-4.3,0-8.2-0.7-11.6-1.8c-3.4-1.2-6.1-2.8-8.1-5c-2-2-3.4-4.6-3.9-7.3c-0.6-2.7-0.3-5.7,1.1-8.9
		l241.4-607.5c0.7-1.6,1.9-3.2,3.7-4.7c1.8-1.5,3.9-2.7,6.5-3.8c2.4-1.1,5.3-2,8.2-2.6c3-0.5,6.1-0.9,9.2-0.9L1632.6,159.8z
		 M1900,779.3l-241.1-607.5c-0.7-1.6-1.9-3.1-3.5-4.4c-1.7-1.4-3.7-2.6-6.1-3.7c-2.3-1.1-5-1.9-7.9-2.4c-2.8-0.6-5.8-1-8.8-1h-1266
		c-3,0-5.9,0.3-8.8,1c-2.8,0.5-5.4,1.3-7.8,2.4c-2.3,1.1-4.5,2.3-6.1,3.7c-1.6,1.3-2.9,2.8-3.5,4.4L99.3,779.3
		c-1.1,2.7-1.4,5.4-1.1,7.8c0.4,2.4,1.4,4.7,3,6.6s3.9,3.6,6.6,4.8s6,2,9.6,2.3l1760.9,0.1c4.5-0.3,8.3-1.2,11.5-2.4
		c3.3-1.2,5.7-2.9,7.6-4.8s3-4.2,3.4-6.6C1901.5,784.7,1901.1,782.1,1900,779.3L1900,779.3z"/>
</g>
<image width="400" height="126" id="Layer_x0020_1" xlink:href="E4D0205F.png"  transform="matrix(1 0 0 1 804 406)">
</image>
</svg>
