<?xml version="1.0" encoding="utf-8"?>
<!-- Generator: Adobe Illustrator 27.7.0, SVG Export Plug-In . SVG Version: 6.00 Build 0)  -->
<svg version="1.2" baseProfile="tiny" id="Layer_1" xmlns="http://www.w3.org/2000/svg" xmlns:xlink="http://www.w3.org/1999/xlink"
	 x="0px" y="0px" viewBox="0 0 1920 1040" overflow="visible" xml:space="preserve">
<g id="Layer_34_">
	<g>
		<g>
			<image width="1420" height="1050" xlink:href="F2B52C67.png"  transform="matrix(1 0 0 1 -21 -9)">
			</image>
		</g>
		<path id="Layer_70_" fill="#488A0A" d="M1301.4-6.7h-96.6v1049h96.6V-6.7z"/>
		<path id="Layer_66_" fill="#488A0A" d="M1501-6.7h-103v1049h103V-6.7z"/>
		<path id="Layer_64_" fill="#488A0A" d="M1708.8-6.7h-105v1049h105V-6.7z"/>
		<path id="Layer_62_" fill="#377508" d="M1398-6.7h-96.6v1049h96.6V-6.7z"/>
		<path id="Layer_58_" fill="#377508" d="M1603.8-6.7H1501v1049h102.9L1603.8-6.7L1603.8-6.7z"/>
		<path id="Layer_56_" fill="#377508" d="M1817.5-6.7h-108.8v1049h108.8V-6.7L1817.5-6.7z"/>
		<path id="Layer_55_" fill="#488A0A" d="M1817.5-6.7h108.7v1049h-108.7V-6.7z"/>
		<image width="712" height="1052" id="Layer_54_" xlink:href="F2B52C65.png"  transform="matrix(1 0 0 1 1204 -7)">
		</image>
	</g>
</g>
<image width="1933" height="1046" xlink:href="F2B52C6B.png"  transform="matrix(1 0 0 1 -10 -3)">
</image>
<g id="Layer_15_">
	<path id="Layer" fill="#90BF64" d="M60.7,779.8c-11.6,24,8.5,29.3,20,29h1750l10.5-0.5c20.8-3.2,22-14.7,20-20
		c-78.8-198-237.5-596.7-241.5-607.5c-4-10.8-19.3-13.5-26.5-13.5H334.7c-23.2-1.6-33,6.7-35,11L60.7,779.8z"/>
	<path id="Layer_1_" fill="#8B8B8B" d="M1862,796.9l-10.7,33.4c-0.2,0.3-0.3,0.7-0.4,1c-0.2,0.2-0.3,0.7-0.4,0.9
		c-0.2,0.3-0.3,0.7-0.6,1c-0.1,0.2-0.4,0.5-0.5,0.8l10.7-33.4c0.1-0.3,0.4-0.6,0.5-0.8c0.1-0.3,0.4-0.6,0.6-1
		c0.1-0.4,0.2-0.7,0.4-0.9C1861.7,797.5,1861.8,797.2,1862,796.9z"/>
	<path id="Layer_2_" fill="#909090" d="M1860.1,800.6l-10.7,33.4c-0.4,0.7-1,1.2-1.5,1.7c-0.6,0.6-1.1,1.1-1.8,1.7
		c-0.6,0.5-1.3,0.9-2,1.5c-0.7,0.4-1.5,0.8-2.3,1.2l10.6-33.4c0.8-0.5,1.6-0.9,2.3-1.3c0.6-0.4,1.3-0.9,2-1.5c0.7-0.5,1.2-1,1.7-1.6
		C1859.3,801.8,1859.7,801.2,1860.1,800.6L1860.1,800.6z"/>
	<path id="Layer_3_" fill="#8B8B8B" d="M1852.5,806.7l-10.6,33.4c-0.4,0.1-0.6,0.2-1,0.5c-0.5,0.1-0.9,0.3-1.3,0.4
		c-0.4,0.1-0.8,0.3-1.2,0.4c-0.4,0.1-0.8,0.3-1.2,0.4l10.6-33.4c0.4-0.1,0.8-0.3,1.3-0.4c0.4-0.1,0.8-0.3,1.2-0.4
		c0.4-0.1,0.8-0.3,1.2-0.4C1851.8,806.9,1852.1,806.8,1852.5,806.7z"/>
	<path id="Layer_4_" fill="#878787" d="M1847.8,808.4l-10.5,33.4c-0.3,0.1-0.8,0-1.2,0.2c-0.2,0.1-0.6,0.1-0.9,0.1s-0.7,0.1-1,0.1
		c-0.2,0-0.7,0.2-0.9,0.2l10.5-33.4c0.3,0,0.7-0.2,1-0.2s0.7-0.1,0.9-0.1c0.3,0,0.7-0.2,1-0.2
		C1847.1,808.4,1847.6,808.5,1847.8,808.4z"/>
	<path id="Layer_5_" fill="#838383" d="M1843.8,809l-10.5,33.4c-0.3,0-0.6,0.1-0.8,0.1c-0.3,0-0.6,0-0.8,0.1c-0.3,0-0.5,0-0.8,0
		s-0.6,0-1,0l10.4-33.4c0.3,0,0.6,0,1,0s0.5,0,0.9,0s0.6,0,0.8-0.1C1843.3,809.1,1843.6,809.1,1843.8,809z"/>
	<path id="Layer_6_" fill="#7F7F7F" d="M1840.3,809.4l-10.4,33.4c-0.1,0-0.3,0-0.4,0s-0.3,0-0.4,0s-0.3,0-0.4,0s-0.3,0-0.4,0
		l10.4-33.4c0.1,0,0.3,0,0.4,0s0.3,0,0.4,0s0.3,0,0.4,0S1840.2,809.4,1840.3,809.4z"/>
	<path id="Layer_7_" fill="#858585" d="M1838.7,809.4l-10.4,33.4H90.4l-10.5-33.4H1838.7z"/>
	<path id="Layer_8_" fill="#7F7F7F" d="M79.9,809.4l10.5,33.4c-0.1,0-0.3,0-0.4,0s-0.3,0-0.4,0s-0.3,0-0.5,0c-0.1,0-0.6,0-0.7,0
		l-10.5-33.4c0.2,0,0.7,0,0.8,0c0.1,0,0.3,0,0.4,0s0.3,0,0.4,0C79.7,809.4,79.8,809.4,79.9,809.4z"/>
	<path id="Layer_9_" fill="#7B7B7B" d="M78.1,809.4l10.4,33.4c-0.3,0-0.5,0-0.8,0c-0.6,0-1.2-0.1-1.7-0.2l-0.8-0.1l-10.5-33.4
		L78.1,809.4z"/>
	<path id="Layer_10_" fill="#777777" d="M74.8,809.1l10.6,33.4c-0.3,0-0.6-0.1-0.9-0.1c-0.2,0-0.5-0.2-0.8-0.2
		c-0.2,0-0.5-0.1-0.8-0.1c-0.2,0-0.5-0.1-0.8-0.1l-10.5-33.5c0.2,0,0.5,0.2,0.8,0.2c0.2,0,0.5,0.1,0.8,0.1s0.5,0.2,0.8,0.2
		S74.5,809,74.8,809.1L74.8,809.1z"/>
	<path id="Layer_11_" fill="#737373" d="M71.7,808.6L82.2,842c-0.2,0-0.5-0.2-0.8-0.2c-0.2-0.1-0.5-0.1-0.8-0.2
		c-0.2-0.2-0.5-0.2-0.8-0.3s-0.6-0.1-0.8-0.3l-10.6-33.4c0.3,0.1,0.6,0.1,0.9,0.3c0.2,0.1,0.5,0.1,0.8,0.2c0.2,0.2,0.5,0.2,0.8,0.3
		C71,808.4,71.4,808.6,71.7,808.6z"/>
	<path id="Layer_12_" fill="#6F6F6F" d="M68.4,807.7L79,841.1c-0.3-0.2-0.7-0.3-0.9-0.4c-0.3-0.2-0.6-0.3-1-0.4
		c-0.3-0.1-0.5-0.3-0.8-0.4c-0.3-0.2-0.7-0.3-1-0.4L64.8,806c0.3,0.2,0.7,0.3,0.9,0.4c0.3,0.1,0.6,0.3,0.9,0.5
		c0.2,0.1,0.5,0.2,0.9,0.4C67.8,807.4,68,807.5,68.4,807.7z"/>
	<path id="Layer_13_" fill="#6B6B6B" d="M64.8,806l10.5,33.4c-1-0.5-2-1.2-2.8-1.9s-1.6-1.4-2.3-2.2c-0.7-0.8-1.2-1.6-1.8-2.4
		c-0.5-0.8-0.9-1.8-1.2-2.7l-10.7-33.4c0.3,0.9,0.7,1.9,1.3,2.7c0.5,0.8,1,1.6,1.7,2.4s1.5,1.5,2.3,2.2
		C62.9,804.9,63.8,805.4,64.8,806z"/>
	<path id="Layer_14_" fill-rule="evenodd" fill="#BBBBBB" d="M1592.2,166.9c3.1,0,6.2,0.2,9.2,0.9c3,0.6,5.8,1.5,8.3,2.6
		s4.7,2.4,6.4,3.8c1.8,1.5,3,3.1,3.7,4.7l241.5,607.5c1.2,3.1,1.5,6,1.1,8.9c-0.6,2.7-1.9,5.3-4,7.3c-2,2-4.8,3.8-8.1,5
		c-3.4,1.2-7.3,1.8-11.6,1.8H79.9c-4.3,0-8.2-0.7-11.6-1.8c-3.4-1.2-6.1-2.8-8.1-5c-2-2-3.4-4.6-3.9-7.3c-0.6-2.7-0.3-5.7,1.1-8.9
		l241.4-607.5c0.7-1.6,1.9-3.2,3.7-4.7c1.8-1.5,3.9-2.7,6.5-3.8c2.4-1.1,5.3-2,8.2-2.6c3-0.5,6.1-0.9,9.2-0.9L1592.2,166.9z
		 M1859.6,786.4l-241.1-607.5c-0.7-1.6-1.9-3.1-3.5-4.4c-1.7-1.4-3.7-2.6-6.1-3.7c-2.3-1.1-5-1.9-7.9-2.4c-2.8-0.6-5.8-1-8.8-1
		h-1266c-3,0-5.9,0.3-8.8,1c-2.8,0.5-5.4,1.3-7.8,2.4c-2.3,1.1-4.5,2.3-6.1,3.7c-1.6,1.3-2.9,2.8-3.5,4.4L58.9,786.4
		c-1.1,2.7-1.4,5.4-1.1,7.8c0.4,2.4,1.4,4.7,3,6.6s3.9,3.6,6.6,4.8s6,2,9.6,2.3l1760.9,0.1c4.5-0.3,8.3-1.2,11.5-2.4
		c3.3-1.2,5.7-2.6,7.6-4.5s3.2-4.3,3.6-6.7C1861.3,791.9,1860.7,789.2,1859.6,786.4L1859.6,786.4z"/>
</g>
<image width="401" height="126" id="Layer_x0020_1" xlink:href="F2B52C6D.png"  transform="matrix(1 0 0 1 763 443)">
</image>
</svg>
