<?xml version="1.0" encoding="utf-8"?>
<!-- Generator: Adobe Illustrator 27.7.0, SVG Export Plug-In . SVG Version: 6.00 Build 0)  -->
<svg version="1.2" baseProfile="tiny" id="Layer_1" xmlns="http://www.w3.org/2000/svg" xmlns:xlink="http://www.w3.org/1999/xlink"
	 x="0px" y="0px" viewBox="0 0 1920 1040" overflow="visible" xml:space="preserve">
<g id="Layer_34_">
	<g>
		<g>
			<image width="1420" height="1050" xlink:href="E505B61D.png"  transform="matrix(1 0 0 1 -19 -4)">
			</image>
		</g>
		<path id="Layer_70_" fill="#488A0A" d="M1303.3-2.2h-96.6v1049h96.6V-2.2z"/>
		<path id="Layer_66_" fill="#488A0A" d="M1502.9-2.2h-103v1049h103V-2.2z"/>
		<path id="Layer_64_" fill="#488A0A" d="M1710.8-2.2h-105v1049h105V-2.2z"/>
		<path id="Layer_62_" fill="#377508" d="M1399.9-2.2h-96.6v1049h96.6V-2.2z"/>
		<path id="Layer_58_" fill="#377508" d="M1605.7-2.2h-102.9v1049h102.9V-2.2z"/>
		<path id="Layer_56_" fill="#377508" d="M1819.5-2.2h-108.8v1049h108.8V-2.2L1819.5-2.2z"/>
		<path id="Layer_55_" fill="#488A0A" d="M1819.5-2.2h108.7v1049h-108.7V-2.2z"/>
		<image width="712" height="1052" id="Layer_54_" xlink:href="E505B61F.png"  transform="matrix(1 0 0 1 1206 -3)">
		</image>
	</g>
</g>
<image width="1933" height="1046" xlink:href="E505B61A.png"  transform="matrix(1 0 0 1 -8 2)">
</image>
<g id="Layer_18_">
	<g>
		<g>
			<image width="1313" height="873" xlink:href="E505B61B.png"  transform="matrix(1 0 0 1 309 83)">
			</image>
		</g>
	</g>
</g>
<image width="400" height="125" id="Layer_x0020_1" xlink:href="E505B625.png"  transform="matrix(1 0 0 1 769 472)">
</image>
</svg>
