<?xml version="1.0" encoding="utf-8"?>
<!-- Generator: Adobe Illustrator 27.7.0, SVG Export Plug-In . SVG Version: 6.00 Build 0)  -->
<svg version="1.2" baseProfile="tiny" id="Layer_1" xmlns="http://www.w3.org/2000/svg" xmlns:xlink="http://www.w3.org/1999/xlink"
	 x="0px" y="0px" viewBox="0 0 1920 1040" overflow="visible" xml:space="preserve">
<g id="Layer_75_">
	<g>
		<g>
			<image width="1420" height="1050" xlink:href="6C50DA4F.png"  transform="matrix(1 0 0 1 -13 -6)">
			</image>
		</g>
		<path id="Layer_83_" fill="#488A0A" d="M1309.1-4.2h-96.6v1049h96.6V-4.2z"/>
		<path id="Layer_82_" fill="#488A0A" d="M1508.7-4.2h-103v1049h103V-4.2z"/>
		<path id="Layer_81_" fill="#488A0A" d="M1716.6-4.2h-105v1049h105V-4.2z"/>
		<path id="Layer_80_" fill="#377508" d="M1405.7-4.2h-96.6v1049h96.6V-4.2z"/>
		<path id="Layer_79_" fill="#377508" d="M1611.5-4.2h-102.9v1049h102.9V-4.2z"/>
		<path id="Layer_78_" fill="#377508" d="M1825.3-4.2h-108.8v1049h108.8V-4.2L1825.3-4.2z"/>
		<path id="Layer_77_" fill="#488A0A" d="M1825.3-4.2H1934v1049h-108.7V-4.2z"/>
		<image width="711" height="1052" id="Layer_76_" xlink:href="6C50DA4D.png"  transform="matrix(1 0 0 1 1212 -5)">
		</image>
	</g>
</g>
<image width="1933" height="1046" xlink:href="6C50DA53.png"  transform="matrix(1 0 0 1 -2 0)">
</image>
<g>
	<g>
		<image width="1920" height="1040" xlink:href="6C50DA55.png" >
		</image>
	</g>
</g>
<image width="400" height="126" id="Layer_x0020_1" xlink:href="6C50DA57.png"  transform="matrix(1 0 0 1 771 406)">
</image>
</svg>
