<?xml version="1.0" encoding="utf-8"?>
<!-- Generator: Adobe Illustrator 27.7.0, SVG Export Plug-In . SVG Version: 6.00 Build 0)  -->
<svg version="1.2" baseProfile="tiny" id="Layer_1" xmlns="http://www.w3.org/2000/svg" xmlns:xlink="http://www.w3.org/1999/xlink"
	 x="0px" y="0px" viewBox="0 0 1920 1040" overflow="visible" xml:space="preserve">
<g id="img1" transform="matrix(1,0,0,1,0,0)">
</g>
<image width="82" height="93" id="Layer" xlink:href="92239D33.png"  transform="matrix(1 0 0 1 145 442)">
</image>
<image width="79" height="91" xlink:href="92239D31.png"  transform="matrix(1 0 0 1 147 443)">
</image>
<image width="79" height="93" id="Layer_00000007406672319989125400000011089737354260532138_" xlink:href="92239D37.png"  transform="matrix(1 0 0 1 186 304)">
</image>
<image width="77" height="92" xlink:href="92239D30.png"  transform="matrix(1 0 0 1 187 304)">
</image>
<image width="97" height="144" id="Layer_00000107546667530392967200000010964277192970894509_" xlink:href="92239D3E.png"  transform="matrix(1 0 0 1 170 304)">
</image>
<image width="95" height="141" xlink:href="92239D3F.png"  transform="matrix(1 0 0 1 171 306)">
</image>
<path id="Layer_00000008859438006043164750000002937309280461774748_" fill="none" stroke="#FFFFFF" stroke-width="1.4" stroke-linecap="round" stroke-linejoin="round" d="
	M187.4,396l-16,50.6"/>
<path id="Layer_00000148656476857067358900000006492069594924047291_" fill="none" stroke="#FFFFFF" stroke-width="6.6" stroke-linejoin="round" d="
	M224.7,534.4v-90.9L266.9,307v89.8"/>
<image width="82" height="93" id="Layer_00000131330599804742020770000015022080855295647636_" xlink:href="92239D32.png"  transform="matrix(1 0 0 1 1693 442)">
</image>
<image width="80" height="91" xlink:href="92239D35.png"  transform="matrix(1 0 0 1 1693 443)">
</image>
<image width="79" height="93" id="Layer_00000059308139633174199020000002399015378655030941_" xlink:href="92239D36.png"  transform="matrix(1 0 0 1 1655 304)">
</image>
<image width="77" height="92" xlink:href="1F25B860.png"  transform="matrix(1 0 0 1 1656 304)">
</image>
<image width="97" height="144" id="Layer_00000147218873965301501110000014586145057240572048_" xlink:href="1F25B867.png"  transform="matrix(1 0 0 1 1653 304)">
</image>
<image width="95" height="141" xlink:href="1F25B861.png"  transform="matrix(1 0 0 1 1654 306)">
</image>
<path id="Layer_00000043456012961916777300000010855946216758026683_" fill="none" stroke="#FFFFFF" stroke-width="1.4" stroke-linecap="round" stroke-linejoin="round" d="
	M1732.4,396l16,50.6"/>
<path id="Layer_00000040576242849276847620000005031268933455891133_" fill="none" stroke="#FFFFFF" stroke-width="6.6" stroke-linejoin="round" d="
	M1695.1,534.4v-90.9L1653,307v89.8"/>
</svg>
