<?xml version="1.0" encoding="utf-8"?>
<!-- Generator: Adobe Illustrator 24.2.3, SVG Export Plug-In . SVG Version: 6.00 Build 0)  -->
<svg version="1.1" id="Layer_1" xmlns="http://www.w3.org/2000/svg" xmlns:xlink="http://www.w3.org/1999/xlink" x="0px" y="0px"
	 viewBox="0 0 1920 1040" style="enable-background:new 0 0 1920 1040;" xml:space="preserve">
<style type="text/css">
	.st0{clip-path:url(#SVGID_2_);}
	.st1{fill:#488A0A;}
	.st2{fill:#377508;}
	.st3{opacity:0.3;fill:#3C8009;enable-background:new    ;}
	.st4{opacity:0.5;}
	.st5{fill:#759F4F;stroke:#CDCDCD;stroke-width:0.6;}
	.st6{fill-rule:evenodd;clip-rule:evenodd;fill:#FFFFFF;}
	.st7{fill:#FFFFFF;}
	.st8{opacity:0.15;}
	.st9{fill-rule:evenodd;clip-rule:evenodd;fill:#169D80;}
	.st10{fill-rule:evenodd;clip-rule:evenodd;fill:#FEFEFE;}
	.st11{font-family:'RussoOne-Regular';}
	.st12{font-size:64.3136px;}
	.st13{fill-rule:evenodd;clip-rule:evenodd;fill:#2B2A29;}
</style>
<g id="Layer_34_">
	<g>
		<g>
			<defs>
				<path id="SVGID_1_" d="M20.6-6.6h1336.9c22.7,0,41.1,20.4,41.1,45.7v957.7c0,25.2-18.4,45.7-41.1,45.7H20.6
					c-22.7,0-41.1-20.4-41.1-45.7V39C-20.5,13.8-2.1-6.6,20.6-6.6z"/>
			</defs>
			<clipPath id="SVGID_2_">
				<use xlink:href="#SVGID_1_"  style="overflow:visible;"/>
			</clipPath>
			<g id="Clip-Path" class="st0">
				<g id="Layer_35_">
					<path id="Layer_52_" class="st1" d="M76.1-6.6h-96.6v1049h96.6V-6.6z"/>
					<path id="Layer_51_" class="st2" d="M1108.3-6.6h96.6v1049h-96.6V-6.6z"/>
					<path id="Layer_50_" class="st2" d="M1108.3-6.6h96.6v1049h-96.6V-6.6z"/>
					<path id="Layer_49_" class="st2" d="M1301.8-6.6h96.6v1049h-96.6V-6.6z"/>
					<path id="Layer_48_" class="st1" d="M275.6-6.6h-103v1049h103V-6.6z"/>
					<path id="Layer_47_" class="st2" d="M908.8-6.6h102.9v1049H908.8V-6.6z"/>
					<path id="Layer_46_" class="st1" d="M483.5-6.6h-105v1049h105V-6.6z"/>
					<path id="Layer_45_" class="st2" d="M700.8-6.6h105v1049h-105V-6.6z"/>
					<path id="Layer_44_" class="st2" d="M172.7-6.6H76.1v1049h96.6V-6.6z"/>
					<path id="Layer_43_" class="st1" d="M1011.7-6.6h96.6v1049h-96.6V-6.6z"/>
					<path id="Layer_42_" class="st1" d="M1011.7-6.6h96.6v1049h-96.6V-6.6z"/>
					<path id="Layer_41_" class="st1" d="M1205.1-6.6h96.7v1049h-96.7V-6.6z"/>
					<path id="Layer_40_" class="st2" d="M378.5-6.6H275.6v1049h102.9V-6.6z"/>
					<path id="Layer_39_" class="st1" d="M805.9-6.6h103v1049h-103V-6.6z"/>
					<path id="Layer_38_" class="st2" d="M592.2-6.6H483.4v1049h108.8L592.2-6.6L592.2-6.6z"/>
					<path id="Layer_37_" class="st1" d="M592.2-6.6h108.7v1049H592.2V-6.6z"/>
					<path id="Layer_36_" class="st3" d="M-20.5-6.6h1419.1v1049H-20.5L-20.5-6.6L-20.5-6.6z"/>
				</g>
			</g>
		</g>
		<path id="Layer_70_" class="st1" d="M1301.4-5.2h-96.6v1049h96.6V-5.2z"/>
		<path id="Layer_66_" class="st1" d="M1501-5.2h-103v1049h103V-5.2z"/>
		<path id="Layer_64_" class="st1" d="M1708.9-5.2h-105v1049h105V-5.2z"/>
		<path id="Layer_62_" class="st2" d="M1398-5.2h-96.6v1049h96.6V-5.2z"/>
		<path id="Layer_58_" class="st2" d="M1603.8-5.2H1501v1049h102.9V-5.2z"/>
		<path id="Layer_56_" class="st2" d="M1817.6-5.2h-108.8v1049h108.8L1817.6-5.2L1817.6-5.2z"/>
		<path id="Layer_55_" class="st1" d="M1817.6-5.2h108.7v1049h-108.7V-5.2z"/>
		<path id="Layer_54_" class="st3" d="M1204.8-5.2l710.4,1.8v1049l-710.4-1.8V-5.2L1204.8-5.2z"/>
	</g>
</g>
<rect x="-0.5" y="0.4" class="st4" width="1932.4" height="1045.3"/>
<g id="Layer_33_">
	<path id="Layer" class="st5" d="M1581.8,88.2H337.3c-18.1,0-32.8,14.6-32.8,32.8v807.5c0,18.1,14.7,32.8,32.8,32.8h1244.5
		c18.1,0,32.8-14.7,32.8-32.8V121C1614.6,102.8,1599.9,88.2,1581.8,88.2L1581.8,88.2z"/>
	<path id="Layer_1_" class="st1" d="M442.1,126.8h-96.9v795.8h96.9V126.8z"/>
	<path id="Layer_2_" class="st2" d="M1476.9,126.8h96.9v795.8h-96.9V126.8z"/>
	<path id="Layer_3_" class="st1" d="M642.1,126.8H538.9v795.8h103.2L642.1,126.8L642.1,126.8z"/>
	<path id="Layer_4_" class="st2" d="M1276.9,126.8h103.2v795.8h-103.2V126.8z"/>
	<path id="Layer_5_" class="st1" d="M850.5,126.8H745.2v795.8h105.3V126.8z"/>
	<path id="Layer_6_" class="st2" d="M1068.4,126.8h105.3v795.8h-105.3V126.8z"/>
	<path id="Layer_7_" class="st2" d="M538.9,126.8h-96.8v795.8h96.8V126.8z"/>
	<path id="Layer_8_" class="st1" d="M1380.1,126.8h96.8v795.8h-96.8V126.8z"/>
	<path id="Layer_9_" class="st2" d="M745.2,126.8H642.1v795.8h103.1L745.2,126.8L745.2,126.8z"/>
	<path id="Layer_10_" class="st1" d="M1173.7,126.8h103.2v795.8h-103.2V126.8z"/>
	<path id="Layer_11_" class="st2" d="M959.5,126.8h-109v795.9h109V126.8z"/>
	<path id="Layer_12_" class="st1" d="M959.5,126.8h109v795.9h-109V126.8z"/>
	<path id="Layer_13_" class="st6" d="M341.2,123.6h1236.4V926H341.2V123.6z M345.4,127.8v794.1h611.9V127.8H345.4z M961.5,127.8
		v794.1h611.9V127.8H961.5z"/>
	<path id="Layer_14_" class="st6" d="M849.9,524.8c0-60.5,49-109.5,109.5-109.5s109.5,49,109.5,109.5s-49,109.5-109.5,109.5
		S849.9,585.3,849.9,524.8z M959.4,419.5c-58.2,0-105.3,47.2-105.3,105.3c0,58.2,47.1,105.3,105.3,105.3
		c58.1,0,105.3-47.1,105.3-105.3C1064.7,466.7,1017.5,419.5,959.4,419.5L959.4,419.5z"/>
	<path id="Layer_15_" class="st7" d="M959.4,527.2c1.3,0,2.3-1.1,2.3-2.4c0-1.3-1-2.3-2.3-2.3s-2.4,1-2.4,2.3
		S958.1,527.2,959.4,527.2z"/>
	<path id="Layer_16_" class="st6" d="M954.9,524.8c0-2.4,2-4.4,4.5-4.4c2.4,0,4.4,2,4.4,4.4c0,2.5-2,4.5-4.4,4.5
		C956.9,529.3,954.9,527.3,954.9,524.8z M959.4,524.6c-0.1,0-0.3,0.1-0.3,0.2c0,0.1,0.2,0.3,0.3,0.3s0.2-0.2,0.2-0.3
		S959.5,524.6,959.4,524.6z"/>
	<path id="Layer_17_" class="st7" d="M472.4,527.2c1.3,0,2.3-1.1,2.3-2.4c0-1.3-1-2.3-2.3-2.3s-2.4,1-2.4,2.3
		S471.1,527.2,472.4,527.2z"/>
	<path id="Layer_18_" class="st6" d="M467.9,524.8c0-2.4,2-4.4,4.5-4.4c2.4,0,4.4,2,4.4,4.4c0,2.5-2,4.5-4.4,4.5
		C469.9,529.3,467.9,527.3,467.9,524.8z M472.4,524.6c-0.2,0-0.3,0.1-0.3,0.2c0,0.1,0.1,0.3,0.3,0.3c0.1,0,0.2-0.2,0.2-0.3
		S472.5,524.6,472.4,524.6z"/>
	<path id="Layer_19_" class="st7" d="M1446.4,527.2c1.3,0,2.4-1.1,2.4-2.4c0-1.3-1.1-2.3-2.4-2.3s-2.3,1-2.3,2.3
		S1445.1,527.2,1446.4,527.2z"/>
	<path id="Layer_20_" class="st6" d="M1442,524.8c0-2.4,2-4.4,4.4-4.4c2.5,0,4.5,2,4.5,4.4c0,2.5-2,4.5-4.5,4.5
		C1444,529.3,1442,527.3,1442,524.8z M1446.4,524.6c-0.1,0-0.2,0.1-0.2,0.2c0,0.1,0.1,0.3,0.2,0.3c0.2,0,0.3-0.2,0.3-0.3
		S1446.6,524.6,1446.4,524.6z"/>
	<path id="Layer_21_" class="st6" d="M320.1,480.9h25.3v89h-25.3V480.9z M324.3,485.1v80.5h16.8v-80.5L324.3,485.1L324.3,485.1z"/>
	<path id="Layer_22_" class="st6" d="M341.2,416.4h68.7v218.1h-68.7V416.4z M345.4,420.6v209.6h60.3V420.6H345.4z"/>
	<path id="Layer_23_" class="st6" d="M1508.9,416.4h68.7v218.1h-68.7V416.4z M1513.1,420.6v209.6h60.3V420.6H1513.1z"/>
	<path id="Layer_24_" class="st6" d="M341.2,287.2H539v476.4H341.2V287.2z M345.4,291.4v467.9h189.4V291.4H345.4z"/>
	<path id="Layer_25_" class="st6" d="M1379.8,287.2h197.8v476.4h-197.8V287.2z M1384,291.4v467.9h189.4V291.4H1384z"/>
	<path id="Layer_26_" class="st6" d="M534.8,434.8l3.4,2.5c13.5,10.2,24.5,23.4,32.1,38.6s11.5,31.9,11.5,48.9
		c0,17-3.9,33.7-11.5,48.9s-18.6,28.4-32.1,38.6l-3.4,2.6V434.8z M539,443.3v163c11.5-9.4,20.9-21.1,27.5-34.4
		c7.3-14.6,11.1-30.7,11.1-47.1c0-16.3-3.8-32.4-11.1-47C559.9,464.5,550.5,452.7,539,443.3L539,443.3z"/>
	<path id="Layer_27_" class="st6" d="M1384,434.8v180.1l-3.4-2.6c-13.6-10.2-24.6-23.4-32.1-38.6c-7.6-15.2-11.6-31.9-11.6-48.9
		s4-33.7,11.6-48.9c7.5-15.2,18.5-28.4,32.1-38.6L1384,434.8z M1379.8,443.3c-11.5,9.5-20.9,21.2-27.5,34.5
		c-7.3,14.6-11.1,30.7-11.1,47.1c0,16.3,3.8,32.4,11.1,47c6.6,13.3,16,25.1,27.5,34.5V443.3z"/>
	<path id="Layer_28_" class="st6" d="M341.2,123.6h15.9v2.1c0,3.7-1.5,7.2-4.1,9.8s-6.1,4.1-9.7,4.1h-2.1L341.2,123.6z M345.4,127.8
		v7.3c1.7-0.4,3.4-1.3,4.7-2.6c1.3-1.3,2.2-3,2.6-4.7H345.4z"/>
	<path id="Layer_29_" class="st6" d="M341.2,910.1h2.1c3.6,0,7.1,1.4,9.7,4s4.1,6.1,4.1,9.8v2.1h-15.9L341.2,910.1z M345.4,914.6
		v7.3h7.3c-0.4-1.8-1.3-3.4-2.6-4.7C348.8,915.9,347.1,915,345.4,914.6L345.4,914.6z"/>
	<path id="Layer_30_" class="st6" d="M1565.7,914.1c2.6-2.6,6.2-4,9.8-4h2.1V926h-15.9v-2.1C1561.7,920.2,1563.2,916.7,1565.7,914.1
		L1565.7,914.1z M1573.4,914.5c-1.7,0.4-3.4,1.3-4.7,2.6c-1.3,1.3-2.2,3-2.6,4.7h7.3L1573.4,914.5z"/>
	<path id="Layer_31_" class="st6" d="M1561.7,123.6h15.9v16h-2.1c-3.6,0-7.2-1.5-9.8-4.1c-2.5-2.6-4-6.1-4-9.8V123.6z M1566.1,127.8
		c0.4,1.8,1.3,3.4,2.6,4.7c1.3,1.3,3,2.2,4.7,2.6v-7.3L1566.1,127.8z"/>
	<path id="Layer_32_" class="st6" d="M1573.5,481.2h25.2v89h-25.2V481.2z M1577.7,485.4v80.5h16.8v-80.5H1577.7z"/>
</g>
<g id="Layer_x0020_1" class="st8">
	<path class="st9" d="M776.2,464.8h80.9c7.4,0,13.5,4.5,13.5,10.3V564c0,5.6-6.1,10.3-13.5,10.3h-80.9c-7.4,0-13.5-4.5-13.5-10.3
		v-88.9C762.7,469.3,768.8,464.8,776.2,464.8z"/>
	<path class="st10" d="M812.8,474.3c20.3,0,36.8,16.2,37.1,36.3c0,0.2,0,0.2,0.2,0.3c0,2.4,0,4.7,0.2,6.9c2.7,4.8,4.8,8.4,7.6,13
		c1.3,1.8,1,3.4-0.6,4c-2.1,1-5.8-0.3-7.1,1.3c0,6.9,0,11.3,0,18c-0.3,5.8-1.9,6.3-6.9,7.1c-5.9,0-11.9,0-17.7,0v12.9h-36.5
		c-0.2-11.6-0.3-23-0.5-34.4c0.2-0.2,0.2-0.2,0.2-0.2c-8-6.9-13-16.9-13-28.3C775.9,490.9,792.4,474.1,812.8,474.3L812.8,474.3z"/>
	<text transform="matrix(1 0 0 1 874.9659 518.9703)" class="st7 st11 st12">MO</text>
	<text transform="matrix(1 0 0 1 979.7969 518.9703)" class="st7 st11 st12">RABI</text>
	<text transform="matrix(1 0 0 1 874.9659 567.2052)" class="st7 st11 st12">MO</text>
	<text transform="matrix(1 0 0 1 979.7969 567.2052)" class="st7 st11 st12">DERN</text>
	<polygon class="st13" points="825.5,504.5 825.5,519.5 813.6,526.2 801.6,519.6 801.6,518.7 801.6,504.7 813.2,497.8 	"/>
	<path class="st13" d="M825.2,476.4l-9,5.6c-1.4,0.8-3.5,1-4.7,0.2l-9.8-6.1c3.5-1.1,7.2-1.8,11.1-1.8
		C817.2,474.3,821.4,474.9,825.2,476.4z"/>
	<path class="st13" d="M788.1,483.8l0.6,10.5c0.2,1.6-1,3.5-2.1,4.2l-10.1,5.8c0.8-3.7,2.1-7.2,3.9-10.6
		C782.3,489.7,785,486.3,788.1,483.8L788.1,483.8z"/>
	<path class="st13" d="M837.8,483.8l-0.6,10.5c-0.2,1.6,1,3.5,2.1,4.2l10.1,5.8c-0.8-3.7-2.1-7.2-3.9-10.6
		C843.5,489.7,840.8,486.3,837.8,483.8L837.8,483.8z"/>
	<path class="st13" d="M776.7,519.6l9.5,4.7c1.4,0.8,2.6,2.4,2.6,3.9v11.6c-2.9-2.4-5.3-5.3-7.4-8.5
		C778.9,527.5,777.5,523.7,776.7,519.6L776.7,519.6z"/>
</g>
</svg>
